<svg id="svg" version="1.1" xmlns="http://www.w3.org/2000/svg" xmlns:xlink="http://www.w3.org/1999/xlink" width="400" height="400" viewBox="0, 0, 400,400"><g id="svgg"><path id="path0" d="M145.400 70.882 C 143.871 71.268,138.819 73.503,138.400 73.978 C 138.290 74.103,137.390 74.817,136.400 75.564 C 132.141 78.779,128.216 85.367,126.727 91.800 C 125.247 98.190,124.951 101.546,123.588 127.400 C 122.713 143.993,122.264 155.962,121.226 190.400 C 120.446 216.277,119.694 229.103,117.828 248.400 C 115.160 275.999,115.177 297.227,117.876 306.400 C 124.393 328.547,149.851 333.191,162.300 314.503 C 167.955 306.014,170.663 295.848,172.395 276.600 C 172.786 272.259,173.250 268.062,174.031 261.800 C 174.251 260.040,174.519 255.180,174.627 251.000 C 174.877 241.306,174.628 242.070,178.294 239.703 C 185.812 234.849,194.630 229.600,195.265 229.600 C 195.953 229.600,196.843 231.261,201.482 241.200 C 206.426 251.793,225.977 291.485,228.672 296.400 C 232.619 303.600,235.184 307.681,238.591 312.183 C 240.816 315.123,247.083 321.760,249.038 323.248 C 255.827 328.415,259.541 329.799,266.600 329.794 C 283.014 329.783,288.877 314.962,281.946 291.000 C 281.038 287.860,278.936 281.423,278.419 280.200 C 278.233 279.760,277.864 278.770,277.599 278.000 C 277.334 277.230,276.791 275.880,276.391 275.000 C 275.991 274.120,275.335 272.595,274.932 271.611 C 274.116 269.618,267.953 257.318,264.512 250.817 C 263.285 248.497,261.251 244.620,259.994 242.200 C 256.550 235.573,254.034 230.812,250.590 224.400 C 245.685 215.269,243.212 210.710,242.019 208.600 C 241.522 207.720,240.973 206.820,240.800 206.600 C 240.627 206.380,240.106 205.525,239.643 204.700 C 239.179 203.875,238.415 202.525,237.943 201.700 C 237.472 200.875,236.636 199.390,236.085 198.400 C 235.534 197.410,234.839 196.245,234.541 195.811 C 233.726 194.623,233.827 194.394,236.306 191.800 C 238.276 189.739,239.823 187.987,244.957 182.000 C 247.165 179.425,256.325 166.747,258.200 163.670 C 258.420 163.309,259.056 162.290,259.612 161.407 C 260.169 160.523,260.874 159.305,261.180 158.700 C 261.485 158.095,261.885 157.600,262.068 157.600 C 262.250 157.600,262.400 157.448,262.400 157.262 C 262.400 157.077,263.671 154.602,265.224 151.762 C 267.584 147.448,272.395 137.559,273.574 134.600 C 273.750 134.160,274.097 133.305,274.346 132.700 C 274.596 132.095,275.001 131.105,275.247 130.500 C 275.492 129.895,275.852 129.087,276.047 128.705 C 276.241 128.323,276.400 127.659,276.400 127.229 C 276.400 126.799,276.580 126.336,276.800 126.200 C 277.020 126.064,277.200 125.524,277.200 125.000 C 277.200 124.476,277.380 123.936,277.600 123.800 C 277.820 123.664,278.000 123.201,278.000 122.771 C 278.000 122.341,278.158 121.677,278.351 121.295 C 278.935 120.139,279.600 117.796,279.600 116.895 C 279.600 116.429,279.760 115.948,279.956 115.827 C 280.151 115.706,280.413 115.021,280.536 114.304 C 280.660 113.587,280.944 112.010,281.167 110.800 C 284.124 94.771,283.653 85.148,279.621 79.243 C 276.614 74.839,274.516 73.637,268.038 72.604 C 258.463 71.078,250.719 75.554,240.000 88.810 C 237.224 92.243,229.200 104.309,229.200 105.050 C 229.200 105.175,228.861 105.754,228.447 106.338 C 227.500 107.672,226.333 109.723,224.200 113.800 C 223.280 115.560,221.895 118.170,221.123 119.600 C 220.352 121.030,218.851 123.820,217.790 125.800 C 215.648 129.793,211.240 137.288,210.850 137.600 C 210.713 137.710,210.420 138.091,210.200 138.447 C 209.541 139.511,205.555 145.241,204.983 145.946 C 204.690 146.306,202.662 148.850,200.475 151.600 C 192.852 161.186,176.259 178.054,175.136 177.360 C 174.690 177.085,174.731 168.864,175.205 163.608 C 175.740 157.661,175.782 105.623,175.254 102.600 C 175.023 101.280,174.638 98.940,174.399 97.400 C 172.177 83.086,165.668 72.967,157.400 70.973 C 155.464 70.505,147.141 70.443,145.400 70.882 " stroke="none" fill="#fbfbfc" fill-rule="evenodd"></path><path id="path1" d="M178.300 0.275 C 176.375 0.361,174.800 0.604,174.800 0.816 C 174.800 1.027,173.540 1.200,172.000 1.200 C 170.400 1.200,169.200 1.371,169.200 1.600 C 169.200 1.822,168.133 2.000,166.800 2.000 C 165.467 2.000,164.400 2.178,164.400 2.400 C 164.400 2.620,163.410 2.800,162.200 2.800 C 160.990 2.800,160.000 2.980,160.000 3.200 C 160.000 3.420,159.280 3.600,158.400 3.600 C 157.520 3.600,156.800 3.780,156.800 4.000 C 156.800 4.220,156.001 4.400,155.024 4.400 C 154.047 4.400,153.136 4.580,153.000 4.800 C 152.864 5.020,152.043 5.200,151.176 5.200 C 150.309 5.200,149.600 5.380,149.600 5.600 C 149.600 5.820,148.970 6.000,148.200 6.000 C 147.430 6.000,146.800 6.180,146.800 6.400 C 146.800 6.620,146.271 6.800,145.624 6.800 C 144.977 6.800,144.336 6.980,144.200 7.200 C 144.064 7.420,143.423 7.600,142.776 7.600 C 142.129 7.600,141.600 7.780,141.600 8.000 C 141.600 8.220,141.105 8.398,140.500 8.395 C 139.243 8.389,130.269 11.225,130.067 11.692 C 129.993 11.861,129.622 12.000,129.242 12.000 C 128.861 12.000,127.805 12.360,126.894 12.800 C 125.984 13.240,124.960 13.600,124.619 13.600 C 124.279 13.600,124.000 13.780,124.000 14.000 C 124.000 14.220,123.640 14.400,123.200 14.400 C 122.760 14.400,122.400 14.580,122.400 14.800 C 122.400 15.020,121.961 15.200,121.424 15.200 C 120.887 15.200,120.336 15.380,120.200 15.600 C 120.064 15.820,119.603 16.000,119.176 16.000 C 118.749 16.000,118.400 16.180,118.400 16.400 C 118.400 16.620,118.040 16.800,117.600 16.800 C 117.160 16.800,116.800 16.980,116.800 17.200 C 116.800 17.420,116.440 17.600,116.000 17.600 C 115.560 17.600,115.200 17.780,115.200 18.000 C 115.200 18.220,114.750 18.400,114.200 18.400 C 113.650 18.400,113.200 18.580,113.200 18.800 C 113.200 19.020,112.840 19.200,112.400 19.200 C 111.960 19.200,111.600 19.380,111.600 19.600 C 111.600 19.820,111.366 20.000,111.080 20.000 C 110.344 20.000,108.407 20.941,108.403 21.300 C 108.401 21.465,108.040 21.600,107.600 21.600 C 107.160 21.600,106.800 21.780,106.800 22.000 C 106.800 22.220,106.480 22.400,106.088 22.400 C 105.697 22.400,105.117 22.760,104.800 23.200 C 104.483 23.640,103.903 24.000,103.512 24.000 C 103.120 24.000,102.800 24.180,102.800 24.400 C 102.800 24.620,102.440 24.800,102.000 24.800 C 101.560 24.800,101.200 24.991,101.200 25.224 C 101.200 25.457,101.041 25.549,100.847 25.429 C 100.653 25.309,100.039 25.568,99.484 26.005 C 98.928 26.442,98.187 26.800,97.837 26.800 C 97.487 26.800,97.200 26.980,97.200 27.200 C 97.200 27.420,97.033 27.600,96.828 27.600 C 96.346 27.600,91.441 30.836,91.267 31.269 C 91.193 31.451,90.828 31.600,90.455 31.600 C 90.082 31.600,89.517 31.960,89.200 32.400 C 88.883 32.840,88.343 33.200,88.000 33.200 C 87.657 33.200,87.117 33.560,86.800 34.000 C 86.483 34.440,85.943 34.800,85.600 34.800 C 85.257 34.800,84.717 35.160,84.400 35.600 C 84.083 36.040,83.593 36.400,83.312 36.400 C 83.030 36.400,82.800 36.580,82.800 36.800 C 82.800 37.020,82.570 37.200,82.288 37.200 C 82.007 37.200,81.517 37.560,81.200 38.000 C 80.883 38.440,80.375 38.800,80.072 38.800 C 79.769 38.800,79.017 39.340,78.400 40.000 C 77.783 40.660,77.173 41.200,77.043 41.200 C 76.817 41.200,75.286 42.429,74.175 43.500 C 73.890 43.775,73.504 44.000,73.316 44.000 C 73.128 44.000,72.076 44.855,70.978 45.900 C 69.879 46.945,68.175 48.428,67.190 49.195 C 66.206 49.962,63.828 52.212,61.906 54.195 C 57.695 58.541,58.541 57.695,54.195 61.906 C 52.212 63.828,49.962 66.206,49.195 67.190 C 48.428 68.175,46.945 69.879,45.900 70.978 C 44.855 72.076,44.000 73.114,44.000 73.284 C 44.000 73.571,42.884 74.998,41.700 76.225 C 41.425 76.510,41.200 76.863,41.200 77.011 C 41.200 77.158,40.660 77.783,40.000 78.400 C 39.340 79.017,38.800 79.769,38.800 80.072 C 38.800 80.375,38.440 80.883,38.000 81.200 C 37.560 81.517,37.200 82.007,37.200 82.288 C 37.200 82.570,37.020 82.800,36.800 82.800 C 36.580 82.800,36.400 83.030,36.400 83.312 C 36.400 83.593,36.040 84.083,35.600 84.400 C 35.160 84.717,34.800 85.257,34.800 85.600 C 34.800 85.943,34.440 86.483,34.000 86.800 C 33.560 87.117,33.200 87.657,33.200 88.000 C 33.200 88.343,32.840 88.883,32.400 89.200 C 31.960 89.517,31.600 90.082,31.600 90.455 C 31.600 90.828,31.451 91.193,31.269 91.267 C 30.836 91.441,27.600 96.346,27.600 96.828 C 27.600 97.033,27.390 97.200,27.133 97.200 C 26.877 97.200,26.776 97.310,26.911 97.444 C 27.045 97.578,26.725 98.368,26.200 99.200 C 25.675 100.032,25.355 100.822,25.489 100.956 C 25.624 101.090,25.523 101.200,25.267 101.200 C 25.010 101.200,24.800 101.560,24.800 102.000 C 24.800 102.440,24.620 102.800,24.400 102.800 C 24.180 102.800,24.000 103.120,24.000 103.512 C 24.000 103.903,23.640 104.483,23.200 104.800 C 22.760 105.117,22.400 105.697,22.400 106.088 C 22.400 106.480,22.220 106.800,22.000 106.800 C 21.780 106.800,21.600 107.160,21.600 107.600 C 21.600 108.040,21.465 108.401,21.300 108.403 C 20.941 108.407,20.000 110.344,20.000 111.080 C 20.000 111.366,19.820 111.600,19.600 111.600 C 19.380 111.600,19.200 111.960,19.200 112.400 C 19.200 112.840,19.020 113.200,18.800 113.200 C 18.580 113.200,18.400 113.650,18.400 114.200 C 18.400 114.750,18.220 115.200,18.000 115.200 C 17.780 115.200,17.600 115.560,17.600 116.000 C 17.600 116.440,17.420 116.800,17.200 116.800 C 16.980 116.800,16.800 117.160,16.800 117.600 C 16.800 118.040,16.620 118.400,16.400 118.400 C 16.180 118.400,16.000 118.749,16.000 119.176 C 16.000 119.603,15.820 120.064,15.600 120.200 C 15.380 120.336,15.200 120.887,15.200 121.424 C 15.200 121.961,15.020 122.400,14.800 122.400 C 14.580 122.400,14.400 122.672,14.400 123.005 C 14.400 123.338,14.227 123.923,14.015 124.305 C 13.045 126.054,12.000 128.614,12.000 129.242 C 12.000 129.622,11.861 129.993,11.692 130.067 C 11.184 130.287,8.389 139.299,8.395 140.700 C 8.398 141.415,8.220 142.000,8.000 142.000 C 7.780 142.000,7.600 142.439,7.600 142.976 C 7.600 143.513,7.420 144.064,7.200 144.200 C 6.980 144.336,6.800 144.977,6.800 145.624 C 6.800 146.271,6.620 146.800,6.400 146.800 C 6.180 146.800,6.000 147.430,6.000 148.200 C 6.000 148.970,5.820 149.600,5.600 149.600 C 5.380 149.600,5.200 150.309,5.200 151.176 C 5.200 152.043,5.020 152.864,4.800 153.000 C 4.580 153.136,4.400 154.047,4.400 155.024 C 4.400 156.001,4.220 156.800,4.000 156.800 C 3.780 156.800,3.600 157.520,3.600 158.400 C 3.600 159.280,3.420 160.000,3.200 160.000 C 2.980 160.000,2.800 160.990,2.800 162.200 C 2.800 163.410,2.620 164.400,2.400 164.400 C 2.178 164.400,2.000 165.467,2.000 166.800 C 2.000 168.133,1.822 169.200,1.600 169.200 C 1.372 169.200,1.200 170.389,1.200 171.967 C 1.200 173.824,1.036 174.788,0.700 174.900 C -0.032 175.144,-0.032 224.856,0.700 225.100 C 1.036 225.212,1.200 226.176,1.200 228.033 C 1.200 229.611,1.372 230.800,1.600 230.800 C 1.822 230.800,2.000 231.867,2.000 233.200 C 2.000 234.533,2.178 235.600,2.400 235.600 C 2.620 235.600,2.800 236.590,2.800 237.800 C 2.800 239.010,2.980 240.000,3.200 240.000 C 3.420 240.000,3.600 240.720,3.600 241.600 C 3.600 242.480,3.780 243.200,4.000 243.200 C 4.220 243.200,4.400 243.999,4.400 244.976 C 4.400 245.953,4.580 246.864,4.800 247.000 C 5.020 247.136,5.200 247.957,5.200 248.824 C 5.200 249.691,5.380 250.400,5.600 250.400 C 5.820 250.400,6.000 251.030,6.000 251.800 C 6.000 252.570,6.180 253.200,6.400 253.200 C 6.620 253.200,6.800 253.830,6.800 254.600 C 6.800 255.370,6.980 256.000,7.200 256.000 C 7.420 256.000,7.600 256.439,7.600 256.976 C 7.600 257.513,7.780 258.064,8.000 258.200 C 8.220 258.336,8.398 258.932,8.395 259.524 C 8.389 260.763,11.230 269.733,11.692 269.933 C 11.861 270.007,12.000 270.414,12.000 270.839 C 12.000 271.263,12.180 271.968,12.400 272.405 C 12.620 272.842,12.980 273.558,13.200 273.995 C 13.420 274.432,13.600 275.062,13.600 275.395 C 13.600 275.728,13.780 276.000,14.000 276.000 C 14.220 276.000,14.400 276.360,14.400 276.800 C 14.400 277.240,14.580 277.600,14.800 277.600 C 15.020 277.600,15.200 278.140,15.200 278.800 C 15.200 279.460,15.380 280.000,15.600 280.000 C 15.820 280.000,16.000 280.360,16.000 280.800 C 16.000 281.240,16.180 281.600,16.400 281.600 C 16.620 281.600,16.800 281.960,16.800 282.400 C 16.800 282.840,16.980 283.200,17.200 283.200 C 17.420 283.200,17.600 283.472,17.600 283.805 C 17.600 284.138,17.761 284.723,17.958 285.105 C 18.155 285.487,18.919 287.060,19.656 288.600 C 20.393 290.140,21.132 291.460,21.298 291.533 C 21.464 291.607,21.600 292.012,21.600 292.433 C 21.600 292.855,21.780 293.200,22.000 293.200 C 22.220 293.200,22.400 293.520,22.400 293.912 C 22.400 294.303,22.760 294.883,23.200 295.200 C 23.640 295.517,24.000 296.097,24.000 296.488 C 24.000 296.880,24.180 297.200,24.400 297.200 C 24.620 297.200,24.800 297.560,24.800 298.000 C 24.800 298.440,24.991 298.800,25.224 298.800 C 25.457 298.800,25.555 298.950,25.441 299.133 C 25.328 299.316,25.669 300.105,26.199 300.885 C 26.729 301.665,27.052 302.415,26.915 302.552 C 26.778 302.688,26.877 302.800,27.133 302.800 C 27.390 302.800,27.600 302.971,27.600 303.180 C 27.600 303.389,28.140 304.360,28.800 305.338 C 29.460 306.316,30.000 307.275,30.000 307.470 C 30.000 307.664,30.360 308.083,30.800 308.400 C 31.240 308.717,31.600 309.257,31.600 309.600 C 31.600 309.943,31.960 310.483,32.400 310.800 C 32.840 311.117,33.200 311.657,33.200 312.000 C 33.200 312.343,33.560 312.883,34.000 313.200 C 34.440 313.517,34.800 314.057,34.800 314.400 C 34.800 314.743,35.160 315.283,35.600 315.600 C 36.040 315.917,36.400 316.380,36.400 316.629 C 36.400 316.878,36.940 317.646,37.600 318.337 C 38.260 319.028,38.800 319.792,38.800 320.036 C 38.800 320.280,39.340 320.983,40.000 321.600 C 40.660 322.217,41.200 322.827,41.200 322.957 C 41.200 323.183,42.429 324.714,43.500 325.825 C 43.775 326.110,44.000 326.491,44.000 326.672 C 44.000 326.853,44.990 328.056,46.200 329.346 C 47.410 330.636,48.400 331.835,48.400 332.011 C 48.400 332.259,53.487 337.464,58.021 341.855 C 58.279 342.105,60.550 344.400,63.067 346.955 C 65.583 349.510,67.797 351.600,67.985 351.600 C 68.174 351.600,69.358 352.590,70.618 353.800 C 71.877 355.010,73.062 356.000,73.251 356.000 C 73.566 356.000,74.952 357.073,76.225 358.300 C 76.510 358.575,76.863 358.800,77.011 358.800 C 77.158 358.800,77.783 359.340,78.400 360.000 C 79.017 360.660,79.769 361.200,80.072 361.200 C 80.375 361.200,80.883 361.560,81.200 362.000 C 81.517 362.440,82.007 362.800,82.288 362.800 C 82.570 362.800,82.800 362.980,82.800 363.200 C 82.800 363.420,83.030 363.600,83.312 363.600 C 83.593 363.600,84.083 363.960,84.400 364.400 C 84.717 364.840,85.257 365.200,85.600 365.200 C 85.943 365.200,86.483 365.560,86.800 366.000 C 87.117 366.440,87.657 366.800,88.000 366.800 C 88.343 366.800,88.883 367.160,89.200 367.600 C 89.517 368.040,90.057 368.400,90.400 368.400 C 90.743 368.400,91.283 368.760,91.600 369.200 C 91.917 369.640,92.329 370.000,92.516 370.000 C 92.703 370.000,93.641 370.540,94.600 371.200 C 95.559 371.860,96.522 372.400,96.739 372.400 C 96.956 372.400,97.193 372.535,97.267 372.700 C 97.477 373.174,101.438 375.200,102.154 375.200 C 102.509 375.200,102.800 375.380,102.800 375.600 C 102.800 375.820,103.120 376.000,103.512 376.000 C 103.903 376.000,104.483 376.360,104.800 376.800 C 105.117 377.240,105.697 377.600,106.088 377.600 C 106.480 377.600,106.800 377.780,106.800 378.000 C 106.800 378.220,107.160 378.400,107.600 378.400 C 108.040 378.400,108.401 378.535,108.403 378.700 C 108.407 379.059,110.344 380.000,111.080 380.000 C 111.366 380.000,111.600 380.180,111.600 380.400 C 111.600 380.620,111.960 380.800,112.400 380.800 C 112.840 380.800,113.200 380.980,113.200 381.200 C 113.200 381.420,113.549 381.600,113.976 381.600 C 114.403 381.600,114.864 381.780,115.000 382.000 C 115.136 382.220,115.597 382.400,116.024 382.400 C 116.451 382.400,116.800 382.580,116.800 382.800 C 116.800 383.020,117.160 383.200,117.600 383.200 C 118.040 383.200,118.400 383.380,118.400 383.600 C 118.400 383.820,118.760 384.000,119.200 384.000 C 119.640 384.000,120.000 384.180,120.000 384.400 C 120.000 384.620,120.540 384.800,121.200 384.800 C 121.860 384.800,122.400 384.980,122.400 385.200 C 122.400 385.420,122.760 385.600,123.200 385.600 C 123.640 385.600,124.000 385.780,124.000 386.000 C 124.000 386.220,124.279 386.400,124.619 386.400 C 124.960 386.400,125.984 386.760,126.894 387.200 C 127.805 387.640,128.861 388.000,129.242 388.000 C 129.622 388.000,129.993 388.139,130.067 388.308 C 130.287 388.816,139.299 391.611,140.700 391.605 C 141.415 391.602,142.000 391.780,142.000 392.000 C 142.000 392.220,142.439 392.400,142.976 392.400 C 143.513 392.400,144.064 392.580,144.200 392.800 C 144.336 393.020,144.977 393.200,145.624 393.200 C 146.271 393.200,146.800 393.380,146.800 393.600 C 146.800 393.820,147.430 394.000,148.200 394.000 C 148.970 394.000,149.600 394.180,149.600 394.400 C 149.600 394.620,150.309 394.800,151.176 394.800 C 152.043 394.800,152.864 394.980,153.000 395.200 C 153.136 395.420,154.047 395.600,155.024 395.600 C 156.001 395.600,156.800 395.780,156.800 396.000 C 156.800 396.220,157.520 396.400,158.400 396.400 C 159.280 396.400,160.000 396.580,160.000 396.800 C 160.000 397.020,160.990 397.200,162.200 397.200 C 163.410 397.200,164.400 397.380,164.400 397.600 C 164.400 397.822,165.467 398.000,166.800 398.000 C 168.133 398.000,169.200 398.178,169.200 398.400 C 169.200 398.628,170.389 398.800,171.967 398.800 C 173.824 398.800,174.788 398.964,174.900 399.300 C 175.144 400.032,224.856 400.032,225.100 399.300 C 225.212 398.964,226.176 398.800,228.033 398.800 C 229.611 398.800,230.800 398.628,230.800 398.400 C 230.800 398.178,231.867 398.000,233.200 398.000 C 234.533 398.000,235.600 397.822,235.600 397.600 C 235.600 397.380,236.590 397.200,237.800 397.200 C 239.010 397.200,240.000 397.020,240.000 396.800 C 240.000 396.580,240.720 396.400,241.600 396.400 C 242.480 396.400,243.200 396.220,243.200 396.000 C 243.200 395.780,244.100 395.600,245.200 395.600 C 246.300 395.600,247.200 395.420,247.200 395.200 C 247.200 394.980,247.920 394.800,248.800 394.800 C 249.680 394.800,250.400 394.620,250.400 394.400 C 250.400 394.180,251.030 394.000,251.800 394.000 C 252.570 394.000,253.200 393.820,253.200 393.600 C 253.200 393.380,253.729 393.200,254.376 393.200 C 255.023 393.200,255.664 393.020,255.800 392.800 C 255.936 392.580,256.577 392.400,257.224 392.400 C 257.871 392.400,258.400 392.220,258.400 392.000 C 258.400 391.780,258.931 391.600,259.580 391.600 C 260.903 391.600,269.726 388.798,269.933 388.312 C 270.007 388.140,270.406 388.000,270.821 388.000 C 271.236 388.000,272.217 387.640,273.000 387.200 C 273.783 386.760,274.779 386.400,275.212 386.400 C 275.645 386.400,276.000 386.220,276.000 386.000 C 276.000 385.780,276.360 385.600,276.800 385.600 C 277.240 385.600,277.600 385.420,277.600 385.200 C 277.600 384.980,278.039 384.800,278.576 384.800 C 279.113 384.800,279.664 384.620,279.800 384.400 C 279.936 384.180,280.397 384.000,280.824 384.000 C 281.251 384.000,281.600 383.820,281.600 383.600 C 281.600 383.380,281.960 383.200,282.400 383.200 C 282.840 383.200,283.200 383.020,283.200 382.800 C 283.200 382.580,283.560 382.400,284.000 382.400 C 284.440 382.400,284.800 382.220,284.800 382.000 C 284.800 381.780,285.135 381.600,285.544 381.600 C 286.346 381.600,291.313 379.195,291.533 378.700 C 291.607 378.535,292.012 378.400,292.433 378.400 C 292.855 378.400,293.200 378.220,293.200 378.000 C 293.200 377.780,293.520 377.600,293.912 377.600 C 294.303 377.600,294.883 377.240,295.200 376.800 C 295.517 376.360,296.097 376.000,296.488 376.000 C 296.880 376.000,297.200 375.820,297.200 375.600 C 297.200 375.380,297.488 375.200,297.841 375.200 C 298.554 375.200,302.524 373.171,302.733 372.700 C 302.807 372.535,303.023 372.400,303.213 372.400 C 303.404 372.400,304.360 371.860,305.338 371.200 C 306.316 370.540,307.275 370.000,307.470 370.000 C 307.664 370.000,308.083 369.640,308.400 369.200 C 308.717 368.760,309.257 368.400,309.600 368.400 C 309.943 368.400,310.483 368.040,310.800 367.600 C 311.117 367.160,311.657 366.800,312.000 366.800 C 312.343 366.800,312.883 366.440,313.200 366.000 C 313.517 365.560,314.057 365.200,314.400 365.200 C 314.743 365.200,315.283 364.840,315.600 364.400 C 315.917 363.960,316.380 363.600,316.629 363.600 C 316.878 363.600,317.646 363.060,318.337 362.400 C 319.028 361.740,319.792 361.200,320.036 361.200 C 320.280 361.200,320.983 360.660,321.600 360.000 C 322.217 359.340,322.922 358.800,323.168 358.800 C 323.413 358.800,324.226 358.170,324.974 357.400 C 325.721 356.630,326.501 356.000,326.706 356.000 C 326.910 356.000,328.213 354.920,329.600 353.600 C 330.987 352.280,332.280 351.200,332.474 351.200 C 332.667 351.200,334.806 349.175,337.226 346.700 C 342.510 341.297,341.297 342.510,346.700 337.226 C 349.175 334.806,351.200 332.667,351.200 332.474 C 351.200 332.280,352.280 330.987,353.600 329.600 C 354.920 328.213,356.000 326.910,356.000 326.706 C 356.000 326.501,356.630 325.721,357.400 324.974 C 358.170 324.226,358.800 323.413,358.800 323.168 C 358.800 322.922,359.340 322.217,360.000 321.600 C 360.660 320.983,361.200 320.280,361.200 320.036 C 361.200 319.792,361.740 319.028,362.400 318.337 C 363.060 317.646,363.600 316.878,363.600 316.629 C 363.600 316.380,363.960 315.917,364.400 315.600 C 364.840 315.283,365.200 314.743,365.200 314.400 C 365.200 314.057,365.560 313.517,366.000 313.200 C 366.440 312.883,366.800 312.343,366.800 312.000 C 366.800 311.657,367.160 311.117,367.600 310.800 C 368.040 310.483,368.400 309.943,368.400 309.600 C 368.400 309.257,368.760 308.717,369.200 308.400 C 369.640 308.083,370.000 307.664,370.000 307.470 C 370.000 307.275,370.540 306.316,371.200 305.338 C 371.860 304.360,372.400 303.389,372.400 303.180 C 372.400 302.971,372.580 302.800,372.800 302.800 C 373.020 302.800,373.200 302.538,373.200 302.218 C 373.200 301.898,373.650 300.972,374.200 300.162 C 374.750 299.351,375.200 298.353,375.200 297.944 C 375.200 297.535,375.380 297.200,375.600 297.200 C 375.820 297.200,376.000 296.880,376.000 296.488 C 376.000 296.097,376.360 295.517,376.800 295.200 C 377.240 294.883,377.600 294.303,377.600 293.912 C 377.600 293.520,377.780 293.200,378.000 293.200 C 378.220 293.200,378.400 292.855,378.400 292.433 C 378.400 292.012,378.535 291.607,378.700 291.533 C 379.195 291.313,381.600 286.346,381.600 285.544 C 381.600 285.135,381.780 284.800,382.000 284.800 C 382.220 284.800,382.400 284.440,382.400 284.000 C 382.400 283.560,382.580 283.200,382.800 283.200 C 383.020 283.200,383.200 282.840,383.200 282.400 C 383.200 281.960,383.380 281.600,383.600 281.600 C 383.820 281.600,384.000 281.240,384.000 280.800 C 384.000 280.360,384.180 280.000,384.400 280.000 C 384.620 280.000,384.800 279.460,384.800 278.800 C 384.800 278.140,384.980 277.600,385.200 277.600 C 385.420 277.600,385.600 277.240,385.600 276.800 C 385.600 276.360,385.780 276.000,386.000 276.000 C 386.220 276.000,386.400 275.645,386.400 275.212 C 386.400 274.779,386.760 273.783,387.200 273.000 C 387.640 272.217,388.000 271.236,388.000 270.821 C 388.000 270.406,388.140 270.007,388.312 269.933 C 388.798 269.726,391.600 260.903,391.600 259.580 C 391.600 258.931,391.780 258.400,392.000 258.400 C 392.220 258.400,392.400 257.871,392.400 257.224 C 392.400 256.577,392.580 255.936,392.800 255.800 C 393.020 255.664,393.200 255.023,393.200 254.376 C 393.200 253.729,393.380 253.200,393.600 253.200 C 393.820 253.200,394.000 252.570,394.000 251.800 C 394.000 251.030,394.180 250.400,394.400 250.400 C 394.620 250.400,394.800 249.680,394.800 248.800 C 394.800 247.920,394.980 247.200,395.200 247.200 C 395.420 247.200,395.600 246.300,395.600 245.200 C 395.600 244.100,395.780 243.200,396.000 243.200 C 396.220 243.200,396.400 242.480,396.400 241.600 C 396.400 240.720,396.580 240.000,396.800 240.000 C 397.020 240.000,397.200 239.010,397.200 237.800 C 397.200 236.590,397.380 235.600,397.600 235.600 C 397.822 235.600,398.000 234.533,398.000 233.200 C 398.000 231.867,398.178 230.800,398.400 230.800 C 398.628 230.800,398.800 229.611,398.800 228.033 C 398.800 226.176,398.964 225.212,399.300 225.100 C 399.693 224.969,399.800 219.591,399.800 200.000 C 399.800 180.409,399.693 175.031,399.300 174.900 C 398.964 174.788,398.800 173.824,398.800 171.967 C 398.800 170.389,398.628 169.200,398.400 169.200 C 398.178 169.200,398.000 168.133,398.000 166.800 C 398.000 165.467,397.822 164.400,397.600 164.400 C 397.380 164.400,397.200 163.410,397.200 162.200 C 397.200 160.990,397.020 160.000,396.800 160.000 C 396.580 160.000,396.400 159.280,396.400 158.400 C 396.400 157.520,396.220 156.800,396.000 156.800 C 395.780 156.800,395.600 156.001,395.600 155.024 C 395.600 154.047,395.420 153.136,395.200 153.000 C 394.980 152.864,394.800 152.043,394.800 151.176 C 394.800 150.309,394.620 149.600,394.400 149.600 C 394.180 149.600,394.000 148.970,394.000 148.200 C 394.000 147.430,393.820 146.800,393.600 146.800 C 393.380 146.800,393.200 146.271,393.200 145.624 C 393.200 144.977,393.020 144.336,392.800 144.200 C 392.580 144.064,392.400 143.423,392.400 142.776 C 392.400 142.129,392.220 141.600,392.000 141.600 C 391.780 141.600,391.602 141.105,391.605 140.500 C 391.611 139.243,388.775 130.269,388.308 130.067 C 388.139 129.993,388.000 129.594,388.000 129.179 C 388.000 128.764,387.640 127.783,387.200 127.000 C 386.760 126.217,386.400 125.221,386.400 124.788 C 386.400 124.355,386.220 124.000,386.000 124.000 C 385.780 124.000,385.600 123.640,385.600 123.200 C 385.600 122.760,385.420 122.400,385.200 122.400 C 384.980 122.400,384.800 121.860,384.800 121.200 C 384.800 120.540,384.620 120.000,384.400 120.000 C 384.180 120.000,384.000 119.640,384.000 119.200 C 384.000 118.760,383.820 118.400,383.600 118.400 C 383.380 118.400,383.200 118.040,383.200 117.600 C 383.200 117.160,383.020 116.800,382.800 116.800 C 382.580 116.800,382.400 116.440,382.400 116.000 C 382.400 115.560,382.220 115.200,382.000 115.200 C 381.780 115.200,381.600 114.750,381.600 114.200 C 381.600 113.650,381.420 113.200,381.200 113.200 C 380.980 113.200,380.800 112.840,380.800 112.400 C 380.800 111.960,380.620 111.600,380.400 111.600 C 380.180 111.600,380.000 111.240,380.000 110.800 C 380.000 110.360,379.820 110.000,379.600 110.000 C 379.380 110.000,379.200 109.640,379.200 109.200 C 379.200 108.760,379.020 108.400,378.800 108.400 C 378.580 108.400,378.400 108.040,378.400 107.600 C 378.400 107.160,378.220 106.800,378.000 106.800 C 377.780 106.800,377.600 106.480,377.600 106.088 C 377.600 105.697,377.240 105.117,376.800 104.800 C 376.360 104.483,376.000 103.903,376.000 103.512 C 376.000 103.120,375.820 102.800,375.600 102.800 C 375.380 102.800,375.200 102.536,375.200 102.214 C 375.200 101.401,373.924 98.800,373.526 98.800 C 373.347 98.800,373.200 98.455,373.200 98.033 C 373.200 97.612,373.065 97.207,372.900 97.133 C 372.545 96.976,370.000 92.876,370.000 92.462 C 370.000 92.305,369.640 91.917,369.200 91.600 C 368.760 91.283,368.400 90.743,368.400 90.400 C 368.400 90.057,368.040 89.517,367.600 89.200 C 367.160 88.883,366.800 88.343,366.800 88.000 C 366.800 87.657,366.440 87.117,366.000 86.800 C 365.560 86.483,365.200 85.943,365.200 85.600 C 365.200 85.257,364.840 84.717,364.400 84.400 C 363.960 84.083,363.600 83.593,363.600 83.312 C 363.600 83.030,363.420 82.800,363.200 82.800 C 362.980 82.800,362.800 82.570,362.800 82.288 C 362.800 82.007,362.440 81.517,362.000 81.200 C 361.560 80.883,361.200 80.375,361.200 80.072 C 361.200 79.769,360.660 79.017,360.000 78.400 C 359.340 77.783,358.800 77.173,358.800 77.043 C 358.800 76.817,357.571 75.286,356.500 74.175 C 356.225 73.890,356.000 73.483,356.000 73.269 C 356.000 73.056,355.143 72.005,354.095 70.935 C 353.047 69.865,351.745 68.362,351.202 67.595 C 350.659 66.828,348.591 64.623,346.607 62.697 C 342.226 58.442,342.512 58.727,337.704 53.793 C 335.557 51.590,333.181 49.348,332.425 48.812 C 331.668 48.276,330.144 46.974,329.037 45.919 C 327.930 44.864,326.886 44.000,326.716 44.000 C 326.429 44.000,325.002 42.884,323.775 41.700 C 323.490 41.425,323.104 41.200,322.917 41.200 C 322.730 41.200,322.317 40.840,322.000 40.400 C 321.683 39.960,321.183 39.600,320.888 39.600 C 320.594 39.600,320.464 39.420,320.600 39.200 C 320.736 38.980,320.565 38.800,320.220 38.800 C 319.875 38.800,319.028 38.260,318.337 37.600 C 317.646 36.940,316.878 36.400,316.629 36.400 C 316.380 36.400,315.917 36.040,315.600 35.600 C 315.283 35.160,314.743 34.800,314.400 34.800 C 314.057 34.800,313.517 34.440,313.200 34.000 C 312.883 33.560,312.343 33.200,312.000 33.200 C 311.657 33.200,311.117 32.840,310.800 32.400 C 310.483 31.960,309.943 31.600,309.600 31.600 C 309.257 31.600,308.717 31.240,308.400 30.800 C 308.083 30.360,307.664 30.000,307.470 30.000 C 307.275 30.000,306.316 29.460,305.338 28.800 C 304.360 28.140,303.389 27.600,303.180 27.600 C 302.971 27.600,302.800 27.420,302.800 27.200 C 302.800 26.980,302.513 26.800,302.163 26.800 C 301.813 26.800,301.072 26.442,300.516 26.005 C 299.961 25.568,299.347 25.309,299.153 25.429 C 298.959 25.549,298.800 25.457,298.800 25.224 C 298.800 24.991,298.440 24.800,298.000 24.800 C 297.560 24.800,297.200 24.620,297.200 24.400 C 297.200 24.180,296.880 24.000,296.488 24.000 C 296.097 24.000,295.517 23.640,295.200 23.200 C 294.883 22.760,294.303 22.400,293.912 22.400 C 293.520 22.400,293.200 22.220,293.200 22.000 C 293.200 21.780,292.855 21.600,292.433 21.600 C 292.012 21.600,291.607 21.465,291.533 21.300 C 291.313 20.805,286.346 18.400,285.544 18.400 C 285.135 18.400,284.800 18.220,284.800 18.000 C 284.800 17.780,284.440 17.600,284.000 17.600 C 283.560 17.600,283.200 17.420,283.200 17.200 C 283.200 16.980,282.840 16.800,282.400 16.800 C 281.960 16.800,281.600 16.620,281.600 16.400 C 281.600 16.180,281.240 16.000,280.800 16.000 C 280.360 16.000,280.000 15.820,280.000 15.600 C 280.000 15.380,279.460 15.200,278.800 15.200 C 278.140 15.200,277.600 15.020,277.600 14.800 C 277.600 14.580,277.240 14.400,276.800 14.400 C 276.360 14.400,276.000 14.220,276.000 14.000 C 276.000 13.780,275.550 13.600,275.000 13.600 C 274.450 13.600,274.000 13.420,274.000 13.200 C 274.000 12.980,273.550 12.800,273.000 12.800 C 272.450 12.800,272.000 12.620,272.000 12.400 C 272.000 12.180,271.565 12.000,271.033 12.000 C 270.502 12.000,270.007 11.861,269.933 11.692 C 269.731 11.225,260.757 8.389,259.500 8.395 C 258.895 8.398,258.400 8.220,258.400 8.000 C 258.400 7.780,257.860 7.600,257.200 7.600 C 256.540 7.600,256.000 7.420,256.000 7.200 C 256.000 6.980,255.370 6.800,254.600 6.800 C 253.830 6.800,253.200 6.620,253.200 6.400 C 253.200 6.180,252.570 6.000,251.800 6.000 C 251.030 6.000,250.400 5.820,250.400 5.600 C 250.400 5.380,249.691 5.200,248.824 5.200 C 247.957 5.200,247.136 5.020,247.000 4.800 C 246.864 4.580,245.953 4.400,244.976 4.400 C 243.999 4.400,243.200 4.220,243.200 4.000 C 243.200 3.780,242.480 3.600,241.600 3.600 C 240.720 3.600,240.000 3.420,240.000 3.200 C 240.000 2.980,239.010 2.800,237.800 2.800 C 236.590 2.800,235.600 2.620,235.600 2.400 C 235.600 2.178,234.533 2.000,233.200 2.000 C 231.867 2.000,230.800 1.822,230.800 1.600 C 230.800 1.372,229.611 1.200,228.033 1.200 C 226.198 1.200,225.211 1.034,225.103 0.708 C 224.941 0.222,187.291 -0.126,178.300 0.275 M155.000 69.790 C 159.481 70.594,160.400 70.842,160.400 71.247 C 160.400 71.441,160.687 71.600,161.038 71.600 C 162.642 71.600,166.786 75.580,168.888 79.138 C 170.491 81.853,172.800 86.970,172.800 87.809 C 172.800 88.140,172.962 88.723,173.161 89.105 C 173.360 89.487,173.732 90.610,173.988 91.600 C 174.244 92.590,174.622 93.953,174.827 94.628 C 175.032 95.304,175.200 96.663,175.200 97.648 C 175.200 98.634,175.367 99.611,175.572 99.820 C 176.542 100.811,177.102 131.299,176.421 146.000 C 175.734 160.799,175.677 175.601,176.307 175.600 C 176.902 175.600,193.748 158.882,195.317 156.735 C 195.906 155.929,196.622 155.029,196.907 154.735 C 197.934 153.677,205.064 144.557,206.394 142.600 C 207.142 141.500,207.899 140.540,208.077 140.467 C 208.255 140.393,208.400 140.123,208.401 139.867 C 208.401 139.610,208.941 138.770,209.600 138.000 C 210.259 137.230,210.799 136.375,210.799 136.100 C 210.800 135.825,210.980 135.600,211.200 135.600 C 211.420 135.600,211.600 135.438,211.600 135.241 C 211.600 135.043,212.294 133.738,213.142 132.341 C 213.990 130.943,215.520 128.239,216.542 126.332 C 217.564 124.425,219.029 121.725,219.798 120.332 C 220.567 118.939,221.683 116.810,222.279 115.600 C 222.875 114.390,223.464 113.310,223.589 113.200 C 223.714 113.090,224.424 111.785,225.168 110.300 C 225.911 108.815,226.673 107.600,226.860 107.600 C 227.047 107.600,227.200 107.418,227.200 107.196 C 227.200 106.417,234.990 93.786,236.281 92.471 C 236.566 92.181,236.803 91.821,236.806 91.671 C 236.810 91.522,237.305 90.841,237.906 90.157 C 238.508 89.473,239.450 88.324,240.000 87.604 C 243.443 83.096,251.081 75.626,252.267 75.607 C 252.523 75.603,252.793 75.464,252.867 75.298 C 253.053 74.876,257.948 72.527,259.400 72.163 C 262.236 71.452,272.483 71.964,273.027 72.844 C 273.148 73.040,273.563 73.200,273.948 73.200 C 274.334 73.200,275.036 73.560,275.508 74.000 C 275.980 74.440,276.533 74.800,276.737 74.800 C 277.046 74.800,278.938 76.794,280.414 78.676 C 280.770 79.131,282.170 82.103,282.827 83.800 C 284.185 87.311,284.154 99.267,282.767 106.800 C 282.067 110.598,281.581 112.945,281.150 114.600 C 280.921 115.480,280.551 116.920,280.328 117.800 C 280.105 118.680,279.760 119.713,279.561 120.095 C 279.362 120.477,279.200 121.141,279.200 121.571 C 279.200 122.001,279.020 122.464,278.800 122.600 C 278.580 122.736,278.400 123.276,278.400 123.800 C 278.400 124.324,278.220 124.864,278.000 125.000 C 277.780 125.136,277.600 125.676,277.600 126.200 C 277.600 126.724,277.420 127.264,277.200 127.400 C 276.980 127.536,276.800 128.087,276.800 128.624 C 276.800 129.161,276.620 129.600,276.400 129.600 C 276.180 129.600,276.000 129.924,276.000 130.320 C 276.000 130.716,275.857 131.211,275.682 131.420 C 275.507 131.629,275.122 132.520,274.828 133.400 C 273.318 137.910,265.215 154.209,262.786 157.620 C 262.354 158.227,262.000 158.921,262.000 159.162 C 262.000 159.403,261.820 159.600,261.600 159.600 C 261.380 159.600,261.200 159.793,261.200 160.028 C 261.200 160.263,260.660 161.241,260.000 162.200 C 259.340 163.159,258.800 164.103,258.800 164.297 C 258.800 164.491,258.475 164.998,258.079 165.425 C 257.682 165.851,256.387 167.640,255.201 169.400 C 254.016 171.160,251.468 174.725,249.540 177.322 C 245.622 182.597,243.459 185.161,237.659 191.400 C 234.465 194.836,234.488 194.159,237.398 199.166 C 238.829 201.628,240.000 203.813,240.000 204.022 C 240.000 204.230,240.146 204.400,240.325 204.400 C 240.504 204.400,240.898 205.030,241.200 205.800 C 241.502 206.570,241.852 207.200,241.977 207.200 C 242.102 207.200,242.459 207.785,242.770 208.500 C 243.081 209.215,243.440 209.890,243.568 210.000 C 243.908 210.293,244.322 211.034,248.591 219.000 C 249.417 220.540,250.501 222.520,251.001 223.400 C 251.941 225.056,256.108 233.009,258.965 238.600 C 259.864 240.360,260.735 241.860,260.900 241.933 C 261.065 242.007,261.200 242.397,261.200 242.800 C 261.200 243.203,261.335 243.593,261.500 243.667 C 261.665 243.740,262.353 244.880,263.029 246.200 C 263.704 247.520,265.164 250.310,266.273 252.400 C 268.061 255.773,270.309 260.219,274.035 267.756 C 274.676 269.052,275.200 270.357,275.200 270.656 C 275.200 270.955,275.380 271.200,275.600 271.200 C 275.820 271.200,276.000 271.472,276.000 271.805 C 276.000 272.138,276.159 272.723,276.353 273.105 C 276.548 273.487,276.908 274.295,277.153 274.900 C 277.399 275.505,277.801 276.495,278.047 277.100 C 278.292 277.705,278.652 278.513,278.847 278.895 C 279.041 279.277,279.200 279.952,279.200 280.395 C 279.200 280.838,279.380 281.200,279.600 281.200 C 279.820 281.200,280.000 281.639,280.000 282.176 C 280.000 282.713,280.180 283.264,280.400 283.400 C 280.620 283.536,280.800 283.999,280.800 284.429 C 280.800 284.859,280.963 285.523,281.163 285.905 C 281.591 286.724,282.742 290.369,283.246 292.500 C 283.441 293.325,283.780 294.765,284.000 295.700 C 286.745 307.372,285.990 317.044,281.853 323.200 C 280.410 325.348,277.289 328.400,276.536 328.400 C 276.241 328.400,276.000 328.580,276.000 328.800 C 276.000 329.020,275.651 329.200,275.224 329.200 C 274.797 329.200,274.348 329.360,274.227 329.556 C 273.681 330.440,262.258 331.218,261.465 330.425 C 261.231 330.191,260.534 330.000,259.915 330.000 C 259.296 330.000,258.477 329.843,258.095 329.650 C 257.713 329.458,256.680 328.949,255.800 328.520 C 253.960 327.623,252.290 326.691,252.000 326.399 C 251.890 326.288,250.722 325.388,249.404 324.399 C 241.522 318.481,233.998 308.502,226.635 294.200 C 225.956 292.880,225.265 291.740,225.100 291.667 C 224.935 291.593,224.800 291.331,224.800 291.084 C 224.800 290.836,222.034 285.046,218.654 278.217 C 210.438 261.618,204.385 249.257,202.682 245.600 C 201.914 243.950,200.390 240.710,199.296 238.400 C 198.202 236.090,196.924 233.356,196.455 232.324 C 195.623 230.495,194.800 229.526,194.800 230.376 C 194.800 230.609,194.610 230.800,194.378 230.800 C 194.146 230.800,192.927 231.475,191.669 232.300 C 190.410 233.125,189.025 234.013,188.591 234.274 C 188.156 234.534,185.550 236.136,182.800 237.834 C 180.050 239.531,177.413 241.114,176.940 241.351 C 176.132 241.755,176.065 242.158,175.843 247.991 C 175.618 253.877,175.320 257.391,174.386 265.200 C 173.979 268.597,173.611 272.091,172.824 280.000 C 171.788 290.421,170.750 296.251,168.776 302.735 C 167.227 307.824,163.888 314.278,161.294 317.200 C 159.277 319.470,155.715 322.798,155.300 322.799 C 155.025 322.799,154.800 322.959,154.800 323.154 C 154.800 323.349,154.125 323.819,153.300 324.198 C 152.475 324.577,151.277 325.138,150.639 325.444 C 150.000 325.750,149.001 326.000,148.419 326.000 C 147.836 326.000,147.169 326.191,146.935 326.425 C 146.165 327.195,134.302 326.413,133.774 325.558 C 133.652 325.361,133.158 325.196,132.676 325.191 C 132.194 325.186,131.350 324.830,130.800 324.400 C 130.250 323.970,129.575 323.614,129.300 323.609 C 129.025 323.604,128.800 323.432,128.800 323.227 C 128.800 323.022,128.428 322.736,127.973 322.592 C 127.126 322.323,123.863 319.190,121.900 316.761 C 115.169 308.433,113.259 289.914,116.005 259.600 C 116.215 257.290,116.569 253.150,116.793 250.400 C 117.194 245.464,117.659 240.409,118.431 232.600 C 119.090 225.931,119.800 209.259,120.806 176.800 C 121.679 148.606,122.631 127.716,123.995 106.800 C 124.627 97.099,124.838 95.028,125.232 94.620 C 125.435 94.411,125.600 93.657,125.600 92.944 C 125.600 92.231,125.780 91.536,126.000 91.400 C 126.220 91.264,126.400 90.634,126.400 90.000 C 126.400 89.366,126.580 88.736,126.800 88.600 C 127.020 88.464,127.200 88.018,127.200 87.610 C 127.200 85.536,132.224 77.993,135.232 75.549 C 136.146 74.807,137.130 73.975,137.418 73.700 C 137.707 73.425,138.091 73.196,138.271 73.191 C 138.452 73.186,139.050 72.830,139.600 72.400 C 140.150 71.970,140.915 71.614,141.300 71.609 C 141.685 71.604,142.000 71.440,142.000 71.245 C 142.000 70.876,142.621 70.719,147.600 69.831 C 151.541 69.128,151.315 69.129,155.000 69.790 " stroke="none" fill="#239cec" fill-rule="evenodd"></path><path id="path2" d="M150.705 69.883 C 151.202 69.979,151.922 69.975,152.305 69.875 C 152.687 69.775,152.280 69.696,151.400 69.701 C 150.520 69.705,150.207 69.787,150.705 69.883 M264.305 71.883 C 264.802 71.979,265.522 71.975,265.905 71.875 C 266.287 71.775,265.880 71.696,265.000 71.701 C 264.120 71.705,263.807 71.787,264.305 71.883 M134.400 76.600 C 133.428 77.590,132.723 78.400,132.833 78.400 C 132.943 78.400,133.828 77.590,134.800 76.600 C 135.772 75.610,136.477 74.800,136.367 74.800 C 136.257 74.800,135.372 75.610,134.400 76.600 M277.600 76.200 C 278.346 76.970,279.047 77.600,279.157 77.600 C 279.267 77.600,278.746 76.970,278.000 76.200 C 277.254 75.430,276.553 74.800,276.443 74.800 C 276.333 74.800,276.854 75.430,277.600 76.200 M243.381 84.100 L 241.800 85.800 243.500 84.219 C 245.081 82.748,245.384 82.400,245.081 82.400 C 245.016 82.400,244.251 83.165,243.381 84.100 M240.559 87.300 C 238.807 89.321,238.287 90.000,238.490 90.000 C 238.607 90.000,239.367 89.190,240.179 88.200 C 241.681 86.366,241.979 85.663,240.559 87.300 M283.314 97.800 C 283.317 98.900,283.395 99.303,283.487 98.695 C 283.579 98.086,283.577 97.186,283.482 96.695 C 283.387 96.203,283.311 96.700,283.314 97.800 M124.893 98.000 C 124.893 98.770,124.975 99.085,125.076 98.700 C 125.176 98.315,125.176 97.685,125.076 97.300 C 124.975 96.915,124.893 97.230,124.893 98.000 M124.493 102.800 C 124.493 103.570,124.575 103.885,124.676 103.500 C 124.776 103.115,124.776 102.485,124.676 102.100 C 124.575 101.715,124.493 102.030,124.493 102.800 M175.714 103.800 C 175.717 104.900,175.795 105.303,175.887 104.695 C 175.979 104.086,175.977 103.186,175.882 102.695 C 175.787 102.203,175.711 102.700,175.714 103.800 M124.131 109.000 C 124.133 110.540,124.205 111.121,124.292 110.291 C 124.379 109.461,124.377 108.201,124.289 107.491 C 124.200 106.781,124.129 107.460,124.131 109.000 M176.120 110.800 C 176.120 112.010,176.195 112.505,176.287 111.900 C 176.378 111.295,176.378 110.305,176.287 109.700 C 176.195 109.095,176.120 109.590,176.120 110.800 M123.701 115.800 C 123.705 116.680,123.787 116.993,123.883 116.495 C 123.979 115.998,123.975 115.278,123.875 114.895 C 123.775 114.513,123.696 114.920,123.701 115.800 M123.331 122.200 C 123.333 123.740,123.405 124.321,123.492 123.491 C 123.579 122.661,123.577 121.401,123.489 120.691 C 123.400 119.981,123.329 120.660,123.331 122.200 M176.170 130.400 C 176.170 135.130,176.228 137.065,176.298 134.700 C 176.369 132.335,176.369 128.465,176.298 126.100 C 176.228 123.735,176.170 125.670,176.170 130.400 M122.914 129.400 C 122.917 130.500,122.995 130.903,123.087 130.295 C 123.179 129.686,123.177 128.786,123.082 128.295 C 122.987 127.803,122.911 128.300,122.914 129.400 M122.540 139.600 C 122.540 141.470,122.609 142.235,122.693 141.300 C 122.777 140.365,122.777 138.835,122.693 137.900 C 122.609 136.965,122.540 137.730,122.540 139.600 M122.120 147.600 C 122.120 148.810,122.195 149.305,122.287 148.700 C 122.378 148.095,122.378 147.105,122.287 146.500 C 122.195 145.895,122.120 146.390,122.120 147.600 M121.751 158.400 C 121.751 160.930,121.816 161.965,121.896 160.700 C 121.975 159.435,121.975 157.365,121.896 156.100 C 121.816 154.835,121.751 155.870,121.751 158.400 M175.751 160.800 C 175.751 163.330,175.816 164.365,175.896 163.100 C 175.975 161.835,175.975 159.765,175.896 158.500 C 175.816 157.235,175.751 158.270,175.751 160.800 M193.200 159.400 C 192.228 160.390,191.523 161.200,191.633 161.200 C 191.743 161.200,192.628 160.390,193.600 159.400 C 194.572 158.410,195.277 157.600,195.167 157.600 C 195.057 157.600,194.172 158.410,193.200 159.400 M186.192 166.900 L 182.200 171.000 186.300 167.008 C 190.108 163.299,190.582 162.800,190.292 162.800 C 190.233 162.800,188.388 164.645,186.192 166.900 M121.331 169.400 C 121.333 170.940,121.405 171.521,121.492 170.691 C 121.579 169.861,121.577 168.601,121.489 167.891 C 121.400 167.181,121.329 167.860,121.331 169.400 M175.328 170.800 C 175.328 172.230,175.401 172.815,175.489 172.100 C 175.578 171.385,175.578 170.215,175.489 169.500 C 175.401 168.785,175.328 169.370,175.328 170.800 M120.951 183.200 C 120.951 185.730,121.016 186.765,121.096 185.500 C 121.175 184.235,121.175 182.165,121.096 180.900 C 121.016 179.635,120.951 180.670,120.951 183.200 M240.175 188.100 L 239.000 189.400 240.300 188.225 C 241.015 187.579,241.600 186.994,241.600 186.925 C 241.600 186.616,241.270 186.888,240.175 188.100 M120.534 195.200 C 120.534 196.850,120.605 197.525,120.691 196.700 C 120.778 195.875,120.778 194.525,120.691 193.700 C 120.605 192.875,120.534 193.550,120.534 195.200 M235.062 193.531 C 234.312 194.360,234.215 195.038,234.795 195.397 C 235.024 195.539,235.088 195.374,234.947 195.006 C 234.813 194.656,235.022 194.018,235.413 193.585 C 235.804 193.153,236.034 192.800,235.924 192.800 C 235.814 192.800,235.426 193.129,235.062 193.531 M120.124 209.800 C 120.126 211.120,120.201 211.612,120.290 210.893 C 120.379 210.174,120.377 209.094,120.286 208.493 C 120.195 207.892,120.122 208.480,120.124 209.800 M119.714 215.800 C 119.717 216.900,119.795 217.303,119.887 216.695 C 119.979 216.086,119.977 215.186,119.882 214.695 C 119.787 214.203,119.711 214.700,119.714 215.800 M119.324 225.800 C 119.326 227.120,119.401 227.612,119.490 226.893 C 119.579 226.174,119.577 225.094,119.486 224.493 C 119.395 223.892,119.322 224.480,119.324 225.800 M118.493 236.000 C 118.493 236.770,118.575 237.085,118.676 236.700 C 118.776 236.315,118.776 235.685,118.676 235.300 C 118.575 234.915,118.493 235.230,118.493 236.000 M118.093 238.800 C 118.093 239.570,118.175 239.885,118.276 239.500 C 118.376 239.115,118.376 238.485,118.276 238.100 C 118.175 237.715,118.093 238.030,118.093 238.800 M117.693 244.400 C 117.693 245.170,117.775 245.485,117.876 245.100 C 117.976 244.715,117.976 244.085,117.876 243.700 C 117.775 243.315,117.693 243.630,117.693 244.400 M117.293 247.200 C 117.293 247.970,117.375 248.285,117.476 247.900 C 117.576 247.515,117.576 246.885,117.476 246.500 C 117.375 246.115,117.293 246.430,117.293 247.200 M175.314 249.800 C 175.317 250.900,175.395 251.303,175.487 250.695 C 175.579 250.086,175.577 249.186,175.482 248.695 C 175.387 248.203,175.311 248.700,175.314 249.800 M116.893 253.200 C 116.893 253.970,116.975 254.285,117.076 253.900 C 117.176 253.515,117.176 252.885,117.076 252.500 C 116.975 252.115,116.893 252.430,116.893 253.200 M116.493 256.400 C 116.493 257.170,116.575 257.485,116.676 257.100 C 116.776 256.715,116.776 256.085,116.676 255.700 C 116.575 255.315,116.493 255.630,116.493 256.400 M174.893 257.200 C 174.893 257.970,174.975 258.285,175.076 257.900 C 175.176 257.515,175.176 256.885,175.076 256.500 C 174.975 256.115,174.893 256.430,174.893 257.200 M116.109 263.200 C 116.109 264.190,116.187 264.595,116.282 264.100 C 116.378 263.605,116.378 262.795,116.282 262.300 C 116.187 261.805,116.109 262.210,116.109 263.200 M174.093 264.800 C 174.093 265.570,174.175 265.885,174.276 265.500 C 174.376 265.115,174.376 264.485,174.276 264.100 C 174.175 263.715,174.093 264.030,174.093 264.800 M115.714 267.400 C 115.717 268.500,115.795 268.903,115.887 268.295 C 115.979 267.686,115.977 266.786,115.882 266.295 C 115.787 265.803,115.711 266.300,115.714 267.400 M173.301 271.400 C 173.305 272.280,173.387 272.593,173.483 272.095 C 173.579 271.598,173.575 270.878,173.475 270.495 C 173.375 270.113,173.296 270.520,173.301 271.400 M115.372 285.200 C 115.372 290.370,115.429 292.485,115.499 289.900 C 115.568 287.315,115.568 283.085,115.499 280.500 C 115.429 277.915,115.372 280.030,115.372 285.200 M172.493 280.400 C 172.493 281.170,172.575 281.485,172.676 281.100 C 172.776 280.715,172.776 280.085,172.676 279.700 C 172.575 279.315,172.493 279.630,172.493 280.400 M283.656 296.800 C 283.656 297.130,283.811 297.760,284.000 298.200 C 284.217 298.704,284.344 298.778,284.344 298.400 C 284.344 298.070,284.189 297.440,284.000 297.000 C 283.783 296.496,283.656 296.422,283.656 296.800 M239.600 314.525 C 239.600 314.594,240.185 315.179,240.900 315.825 L 242.200 317.000 241.025 315.700 C 239.930 314.488,239.600 314.216,239.600 314.525 M124.600 319.600 C 125.459 320.480,126.252 321.200,126.362 321.200 C 126.472 321.200,125.859 320.480,125.000 319.600 C 124.141 318.720,123.348 318.000,123.238 318.000 C 123.128 318.000,123.741 318.720,124.600 319.600 M244.000 319.400 C 244.746 320.170,245.447 320.800,245.557 320.800 C 245.667 320.800,245.146 320.170,244.400 319.400 C 243.654 318.630,242.953 318.000,242.843 318.000 C 242.733 318.000,243.254 318.630,244.000 319.400 M279.178 325.900 L 277.800 327.400 279.300 326.022 C 280.125 325.263,280.800 324.588,280.800 324.522 C 280.800 324.216,280.462 324.504,279.178 325.900 M141.100 326.682 C 141.595 326.778,142.405 326.778,142.900 326.682 C 143.395 326.587,142.990 326.509,142.000 326.509 C 141.010 326.509,140.605 326.587,141.100 326.682 " stroke="none" fill="#75c2f4" fill-rule="evenodd"></path><path id="path3" d="M149.891 70.289 C 150.601 70.377,151.861 70.379,152.691 70.292 C 153.521 70.205,152.940 70.133,151.400 70.131 C 149.860 70.129,149.181 70.200,149.891 70.289 M144.800 70.800 C 143.996 71.057,143.957 71.123,144.600 71.132 C 145.040 71.138,145.760 70.989,146.200 70.800 C 147.219 70.362,146.168 70.362,144.800 70.800 M156.400 70.800 C 156.730 71.013,157.360 71.178,157.800 71.166 L 158.600 71.144 157.800 70.800 C 156.604 70.286,155.605 70.286,156.400 70.800 M139.865 72.647 C 139.240 72.986,138.815 73.348,138.920 73.453 C 139.024 73.557,139.715 73.274,140.455 72.823 C 142.013 71.873,141.548 71.735,139.865 72.647 M261.000 72.400 C 259.906 72.870,261.733 72.870,263.200 72.400 C 264.175 72.088,264.170 72.079,263.000 72.068 C 262.340 72.062,261.440 72.211,261.000 72.400 M267.000 72.423 C 269.137 72.865,270.604 72.850,269.200 72.400 C 268.650 72.224,267.570 72.083,266.800 72.086 L 265.400 72.092 267.000 72.423 M164.246 74.638 C 165.372 75.717,166.791 77.365,167.400 78.300 C 168.585 80.121,169.132 80.579,168.356 79.100 C 167.564 77.593,164.804 74.455,163.464 73.540 C 162.668 72.996,162.957 73.402,164.246 74.638 M257.600 73.200 C 257.067 73.545,257.067 73.588,257.600 73.588 C 257.930 73.588,258.470 73.413,258.800 73.200 C 259.333 72.855,259.333 72.812,258.800 72.812 C 258.470 72.812,257.930 72.987,257.600 73.200 M136.360 75.223 L 134.600 76.859 136.400 75.534 C 137.390 74.805,138.275 74.161,138.367 74.104 C 138.458 74.047,138.440 73.907,138.326 73.793 C 138.212 73.679,137.327 74.322,136.360 75.223 M273.600 73.784 C 273.600 73.894,274.275 74.331,275.100 74.755 C 276.812 75.636,278.213 77.050,279.808 79.508 C 280.418 80.448,281.000 81.133,281.102 81.031 C 281.357 80.776,279.769 78.514,278.037 76.666 C 276.767 75.311,273.600 73.253,273.600 73.784 M248.383 79.239 L 245.800 81.678 248.500 79.390 C 250.922 77.338,251.458 76.800,251.083 76.800 C 251.019 76.800,249.804 77.898,248.383 79.239 M132.647 78.801 C 131.347 80.240,130.974 80.800,131.315 80.800 C 131.379 80.800,132.108 79.990,132.935 79.000 C 134.800 76.769,134.605 76.634,132.647 78.801 M130.037 82.540 C 129.012 84.198,127.409 87.828,127.052 89.300 C 126.600 91.159,127.070 90.519,127.784 88.300 C 128.156 87.145,129.074 85.075,129.823 83.700 C 131.277 81.030,131.408 80.321,130.037 82.540 M243.418 84.382 L 241.436 86.600 243.599 84.514 C 244.789 83.367,245.680 82.369,245.581 82.297 C 245.481 82.224,244.508 83.163,243.418 84.382 M282.056 84.000 C 282.056 84.330,282.211 84.960,282.400 85.400 C 282.617 85.904,282.744 85.978,282.744 85.600 C 282.744 85.270,282.589 84.640,282.400 84.200 C 282.183 83.696,282.056 83.622,282.056 84.000 M171.616 86.125 C 171.592 86.611,172.867 90.400,173.054 90.400 C 173.143 90.400,173.093 89.905,172.943 89.300 C 172.622 88.008,171.638 85.654,171.616 86.125 M282.980 93.800 L 282.960 100.600 283.331 96.269 C 283.550 93.722,283.558 90.920,283.352 89.469 C 283.063 87.446,282.996 88.228,282.980 93.800 M238.283 90.500 C 236.427 92.803,231.097 100.830,231.294 101.027 C 231.380 101.114,232.470 99.600,233.715 97.664 C 234.960 95.727,236.877 92.941,237.976 91.471 C 240.205 88.490,240.399 87.875,238.283 90.500 M126.449 91.200 C 126.416 91.530,126.289 92.250,126.167 92.800 C 125.975 93.664,126.007 93.703,126.399 93.088 C 126.648 92.697,126.775 91.977,126.681 91.488 C 126.586 91.000,126.482 90.870,126.449 91.200 M173.206 91.633 C 173.209 92.165,173.389 92.870,173.606 93.200 C 173.882 93.622,173.923 93.385,173.742 92.400 C 173.425 90.675,173.198 90.349,173.206 91.633 M125.418 95.818 C 125.265 96.839,125.230 97.763,125.340 97.873 C 125.450 97.983,125.665 97.239,125.818 96.218 C 125.971 95.198,126.006 94.273,125.896 94.163 C 125.786 94.053,125.571 94.798,125.418 95.818 M174.040 95.033 C 174.062 95.675,174.233 96.650,174.420 97.200 C 174.649 97.874,174.684 97.549,174.528 96.200 C 174.269 93.950,173.979 93.259,174.040 95.033 M174.840 100.233 C 174.862 101.095,175.033 102.250,175.221 102.800 C 175.442 103.448,175.480 102.955,175.331 101.400 C 175.063 98.620,174.782 97.951,174.840 100.233 M124.648 103.337 C 124.480 105.723,124.427 107.760,124.531 107.865 C 124.789 108.123,125.327 100.732,125.120 99.768 C 125.029 99.346,124.817 100.952,124.648 103.337 M230.553 102.100 C 229.176 104.436,229.086 104.635,229.787 103.800 C 230.600 102.832,231.300 101.600,231.038 101.600 C 230.933 101.600,230.715 101.825,230.553 102.100 M282.200 104.400 C 282.045 105.528,282.008 106.541,282.118 106.651 C 282.228 106.761,282.445 105.928,282.600 104.800 C 282.755 103.672,282.792 102.659,282.682 102.549 C 282.572 102.439,282.355 103.272,282.200 104.400 M228.370 105.666 C 228.098 106.180,227.613 107.005,227.292 107.500 C 226.971 107.995,226.795 108.400,226.901 108.400 C 227.236 108.400,229.269 105.136,229.062 104.929 C 228.954 104.820,228.642 105.152,228.370 105.666 M175.747 131.000 L 175.732 156.600 175.998 135.400 C 176.144 123.740,176.151 112.220,176.014 109.800 C 175.876 107.380,175.756 116.920,175.747 131.000 M281.422 109.022 C 281.272 109.825,281.238 110.572,281.348 110.682 C 281.458 110.792,281.672 110.225,281.822 109.422 C 281.973 108.619,282.006 107.873,281.896 107.763 C 281.786 107.653,281.573 108.219,281.422 109.022 M225.786 110.100 L 225.152 111.400 225.967 110.400 C 226.752 109.437,227.008 108.800,226.610 108.800 C 226.506 108.800,226.135 109.385,225.786 110.100 M123.881 116.148 C 123.705 118.759,123.644 120.977,123.744 121.077 C 124.035 121.368,124.477 115.597,124.332 113.400 C 124.245 112.083,124.091 113.021,123.881 116.148 M280.673 112.953 C 280.523 113.345,280.411 113.966,280.425 114.333 C 280.442 114.775,280.581 114.674,280.837 114.034 C 281.049 113.503,281.161 112.882,281.085 112.654 C 281.009 112.427,280.824 112.561,280.673 112.953 M223.440 114.440 C 223.045 115.108,222.811 115.744,222.919 115.853 C 223.028 115.961,223.406 115.469,223.760 114.760 C 224.593 113.090,224.370 112.866,223.440 114.440 M279.867 115.867 C 279.720 116.013,279.611 116.508,279.625 116.967 C 279.649 117.733,279.682 117.723,280.034 116.842 C 280.426 115.863,280.344 115.389,279.867 115.867 M221.800 117.600 C 221.459 118.260,221.269 118.800,221.379 118.800 C 221.489 118.800,221.859 118.260,222.200 117.600 C 222.541 116.940,222.731 116.400,222.621 116.400 C 222.511 116.400,222.141 116.940,221.800 117.600 M279.000 119.200 C 278.850 119.673,278.817 120.150,278.927 120.260 C 279.037 120.370,279.250 120.073,279.400 119.600 C 279.550 119.127,279.583 118.650,279.473 118.540 C 279.363 118.430,279.150 118.727,279.000 119.200 M218.634 123.474 C 217.853 124.944,217.289 126.223,217.381 126.315 C 217.473 126.407,218.192 125.204,218.979 123.641 C 220.792 120.042,220.525 119.913,218.634 123.474 M123.065 130.532 C 122.881 133.794,122.818 136.551,122.925 136.658 C 123.207 136.941,123.691 128.956,123.533 126.600 C 123.460 125.500,123.249 127.269,123.065 130.532 M216.151 128.100 C 215.783 128.815,214.411 131.167,213.101 133.326 C 211.791 135.485,210.787 137.321,210.871 137.405 C 210.955 137.489,211.952 135.992,213.086 134.079 C 216.132 128.940,217.296 126.800,217.044 126.800 C 216.921 126.800,216.519 127.385,216.151 128.100 M273.121 135.654 C 272.881 136.344,271.804 138.707,270.728 140.907 C 269.653 143.107,268.851 144.984,268.947 145.080 C 269.134 145.268,271.991 139.412,273.231 136.300 C 273.648 135.255,273.892 134.400,273.773 134.400 C 273.655 134.400,273.362 134.964,273.121 135.654 M209.406 139.088 L 208.704 140.200 209.630 139.311 C 210.139 138.822,210.455 138.322,210.332 138.199 C 210.209 138.076,209.792 138.476,209.406 139.088 M206.238 143.600 C 205.448 144.700,204.936 145.597,205.101 145.593 C 205.406 145.585,208.141 141.600,207.841 141.600 C 207.750 141.600,207.028 142.500,206.238 143.600 M122.264 148.931 C 122.079 152.412,122.016 155.349,122.123 155.456 C 122.401 155.735,122.894 146.988,122.734 144.600 C 122.660 143.500,122.449 145.449,122.264 148.931 M203.375 147.468 C 202.759 148.276,202.459 148.811,202.709 148.656 C 203.221 148.340,204.953 146.000,204.675 146.000 C 204.576 146.000,203.991 146.661,203.375 147.468 M267.182 148.066 C 266.916 148.580,265.897 150.485,264.917 152.300 C 263.937 154.115,263.228 155.600,263.342 155.600 C 263.649 155.600,268.034 147.501,267.835 147.302 C 267.741 147.208,267.447 147.552,267.182 148.066 M200.562 151.100 C 199.718 152.145,198.929 153.090,198.808 153.200 C 198.167 153.785,195.200 157.550,195.200 157.778 C 195.200 157.925,196.152 156.910,197.315 155.523 C 200.810 151.355,202.508 149.200,202.296 149.200 C 202.186 149.200,201.406 150.055,200.562 151.100 M261.269 158.439 C 260.510 159.654,260.966 159.816,261.755 158.612 C 262.120 158.056,262.278 157.600,262.105 157.600 C 261.933 157.600,261.557 157.978,261.269 158.439 M186.641 166.528 C 178.583 174.700,177.918 175.562,184.733 169.000 C 188.081 165.777,195.107 158.356,194.743 158.428 C 194.664 158.444,191.018 162.089,186.641 166.528 M259.453 161.591 C 258.874 162.467,258.400 163.317,258.400 163.480 C 258.400 163.644,258.642 163.423,258.939 162.989 C 260.241 161.081,260.878 160.000,260.699 160.000 C 260.593 160.000,260.032 160.716,259.453 161.591 M175.062 165.100 C 174.698 170.603,174.738 177.115,175.138 177.362 C 175.324 177.477,176.156 176.947,176.988 176.185 C 177.820 175.423,178.351 174.800,178.169 174.800 C 177.987 174.800,177.224 175.385,176.472 176.100 L 175.107 177.400 175.388 169.300 C 175.684 160.798,175.502 158.456,175.062 165.100 M121.460 171.327 C 121.273 176.126,121.209 180.142,121.317 180.251 C 121.612 180.545,122.082 169.481,121.931 165.800 C 121.850 163.827,121.670 165.947,121.460 171.327 M257.545 164.700 C 257.227 165.085,256.178 166.570,255.215 168.000 C 254.252 169.430,252.835 171.500,252.066 172.600 C 251.298 173.700,251.031 174.240,251.473 173.800 C 252.315 172.962,258.535 164.000,258.274 164.000 C 258.192 164.000,257.864 164.315,257.545 164.700 M249.375 176.268 C 248.759 177.076,248.459 177.611,248.709 177.456 C 249.221 177.140,250.953 174.800,250.675 174.800 C 250.576 174.800,249.991 175.461,249.375 176.268 M247.544 178.700 C 246.275 180.232,245.819 180.942,246.281 180.665 C 246.793 180.358,248.569 178.000,248.289 178.000 C 248.198 178.000,247.863 178.315,247.544 178.700 M244.633 182.276 C 244.211 182.855,242.726 184.635,241.333 186.232 C 239.940 187.830,238.800 189.241,238.800 189.370 C 238.800 189.498,239.393 188.927,240.117 188.101 C 244.524 183.077,246.057 181.201,245.749 181.213 C 245.557 181.219,245.055 181.698,244.633 182.276 M120.661 197.128 C 120.475 202.479,120.410 206.943,120.517 207.050 C 120.777 207.310,121.305 192.386,121.135 189.600 C 121.061 188.390,120.848 191.778,120.661 197.128 M237.637 190.340 C 237.327 190.703,236.351 191.759,235.467 192.687 C 233.980 194.247,233.896 194.453,234.345 195.438 C 234.612 196.024,234.926 196.408,235.043 196.291 C 235.160 196.174,235.021 195.703,234.735 195.245 C 234.262 194.487,234.410 194.215,236.384 192.216 C 237.577 191.008,238.474 189.943,238.377 189.850 C 238.279 189.757,237.947 189.978,237.637 190.340 M236.116 198.400 C 236.650 199.390,237.500 200.920,238.005 201.800 C 238.510 202.680,239.265 204.030,239.683 204.800 C 240.101 205.570,240.807 206.650,241.252 207.200 C 242.138 208.297,240.915 205.982,238.323 201.659 C 237.485 200.262,236.796 199.002,236.791 198.859 C 236.786 198.717,236.414 198.150,235.964 197.600 C 235.287 196.772,235.313 196.910,236.116 198.400 M242.015 208.600 C 242.017 208.820,242.386 209.450,242.836 210.000 C 243.379 210.664,243.515 210.731,243.240 210.200 C 242.566 208.895,242.012 208.172,242.015 208.600 M119.843 217.521 C 119.659 220.667,119.600 223.333,119.713 223.446 C 119.989 223.722,120.513 214.965,120.326 213.200 C 120.245 212.430,120.028 214.374,119.843 217.521 M244.409 213.100 C 244.414 213.265,244.785 213.850,245.233 214.400 L 246.048 215.400 245.414 214.100 C 244.811 212.865,244.389 212.445,244.409 213.100 M248.200 220.000 C 248.541 220.660,248.911 221.200,249.021 221.200 C 249.131 221.200,248.941 220.660,248.600 220.000 C 248.259 219.340,247.889 218.800,247.779 218.800 C 247.669 218.800,247.859 219.340,248.200 220.000 M251.402 225.911 C 252.232 227.512,252.980 228.753,253.064 228.669 C 253.258 228.476,250.895 223.940,250.320 223.400 C 250.085 223.180,250.573 224.310,251.402 225.911 M119.036 230.739 C 118.875 232.355,118.831 233.764,118.937 233.870 C 119.201 234.134,119.731 228.990,119.507 228.330 C 119.409 228.039,119.197 229.122,119.036 230.739 M254.000 230.800 C 254.449 231.680,254.906 232.400,255.016 232.400 C 255.126 232.400,254.849 231.680,254.400 230.800 C 253.951 229.920,253.494 229.200,253.384 229.200 C 253.274 229.200,253.551 229.920,254.000 230.800 M192.900 230.626 C 191.012 231.758,190.577 232.349,192.300 231.441 C 193.509 230.803,195.116 229.631,194.800 229.617 C 194.690 229.612,193.835 230.066,192.900 230.626 M196.509 231.500 C 196.595 231.665,196.974 232.475,197.352 233.300 C 197.729 234.125,198.130 234.800,198.242 234.800 C 198.355 234.800,198.377 234.665,198.291 234.500 C 198.205 234.335,197.826 233.525,197.448 232.700 C 197.071 231.875,196.670 231.200,196.558 231.200 C 196.445 231.200,196.423 231.335,196.509 231.500 M186.000 234.860 C 173.471 242.619,174.780 240.894,174.869 249.533 L 174.938 256.200 175.217 251.600 C 175.370 249.070,175.521 245.830,175.553 244.400 L 175.610 241.800 178.505 239.948 C 180.097 238.929,183.129 237.060,185.242 235.794 C 188.921 233.589,191.226 232.022,190.800 232.014 C 190.690 232.013,188.530 233.293,186.000 234.860 M255.200 232.893 C 255.200 233.294,257.640 237.787,258.082 238.200 C 258.318 238.420,257.841 237.340,257.022 235.800 C 255.531 232.998,255.200 232.469,255.200 232.893 M198.420 235.264 C 198.382 235.764,201.272 241.661,201.462 241.472 C 201.566 241.368,200.929 239.869,200.046 238.141 C 199.162 236.414,198.431 235.119,198.420 235.264 M118.193 240.138 C 118.038 241.787,117.993 243.375,118.093 243.668 C 118.192 243.961,118.406 242.699,118.567 240.864 C 118.729 239.029,118.774 237.441,118.668 237.334 C 118.561 237.228,118.347 238.489,118.193 240.138 M259.200 240.450 C 259.200 240.798,260.437 243.200,260.617 243.200 C 260.704 243.200,260.661 242.885,260.521 242.500 C 260.233 241.706,259.200 240.103,259.200 240.450 M260.870 243.900 C 261.572 245.447,263.655 249.200,263.811 249.200 C 263.920 249.200,263.376 247.940,262.600 246.400 C 261.824 244.860,261.087 243.600,260.962 243.600 C 260.836 243.600,260.795 243.735,260.870 243.900 M117.396 248.509 C 117.243 250.141,117.191 251.819,117.280 252.238 C 117.370 252.657,117.579 251.406,117.746 249.458 C 117.912 247.509,117.964 245.831,117.861 245.728 C 117.758 245.625,117.549 246.876,117.396 248.509 M206.417 252.300 C 206.426 252.465,206.778 253.230,207.200 254.000 C 208.121 255.682,208.265 255.055,207.371 253.261 C 206.767 252.052,206.381 251.663,206.417 252.300 M267.021 255.641 C 267.808 257.204,268.527 258.407,268.619 258.315 C 268.805 258.129,266.051 252.800,265.768 252.800 C 265.670 252.800,266.234 254.078,267.021 255.641 M116.667 256.760 C 116.520 258.167,116.426 260.416,116.457 261.759 C 116.497 263.480,116.613 262.844,116.850 259.600 C 117.218 254.574,117.095 252.669,116.667 256.760 M174.272 258.604 C 174.127 259.482,174.030 261.010,174.056 262.000 C 174.093 263.403,174.180 263.139,174.451 260.800 C 174.828 257.553,174.701 256.005,174.272 258.604 M268.800 258.950 C 268.800 259.202,272.735 266.869,273.001 267.134 C 273.462 267.596,272.474 265.336,270.781 262.058 C 269.303 259.196,268.800 258.406,268.800 258.950 M210.507 260.700 C 210.592 260.865,211.519 262.755,212.568 264.900 C 213.617 267.045,214.559 268.800,214.661 268.800 C 214.764 268.800,214.778 268.665,214.693 268.500 C 214.608 268.335,213.681 266.445,212.632 264.300 C 211.583 262.155,210.641 260.400,210.539 260.400 C 210.436 260.400,210.422 260.535,210.507 260.700 M173.469 265.556 C 173.321 266.295,173.223 267.643,173.251 268.550 C 173.292 269.902,173.363 269.730,173.644 267.600 C 174.017 264.765,173.900 263.399,173.469 265.556 M115.862 268.093 C 115.721 269.912,115.633 274.550,115.667 278.400 C 115.729 285.270,115.736 285.210,116.024 275.200 C 116.332 264.483,116.290 262.603,115.862 268.093 M274.000 269.284 C 274.000 269.716,275.215 272.400,275.411 272.400 C 275.521 272.400,275.333 271.734,274.993 270.921 C 274.393 269.486,274.000 268.838,274.000 269.284 M172.671 272.802 C 172.526 274.011,172.431 275.990,172.459 277.200 C 172.497 278.781,172.607 278.274,172.848 275.400 C 173.215 271.037,173.094 269.273,172.671 272.802 M218.841 277.400 C 218.841 277.620,219.722 279.510,220.800 281.600 C 221.878 283.690,222.759 285.220,222.759 285.000 C 222.759 284.780,221.878 282.890,220.800 280.800 C 219.722 278.710,218.841 277.180,218.841 277.400 M171.810 282.269 C 171.667 283.771,171.393 285.900,171.201 287.000 C 170.605 290.429,170.315 293.010,170.553 292.776 C 170.992 292.345,172.600 280.066,172.262 279.728 C 172.157 279.623,171.953 280.766,171.810 282.269 M282.056 291.200 C 282.056 291.530,282.211 292.160,282.400 292.600 C 282.617 293.104,282.744 293.178,282.744 292.800 C 282.744 292.470,282.589 291.840,282.400 291.400 C 282.183 290.896,282.056 290.822,282.056 291.200 M115.664 294.233 C 115.629 296.012,115.774 298.442,115.986 299.633 C 116.198 300.825,116.480 302.493,116.612 303.341 C 116.744 304.188,116.922 304.812,117.007 304.726 C 117.093 304.640,116.976 303.407,116.747 301.985 C 116.518 300.563,116.195 297.510,116.029 295.200 L 115.728 291.000 115.664 294.233 M170.059 294.000 C 170.020 294.550,169.889 295.450,169.767 296.000 C 169.576 296.862,169.608 296.902,169.997 296.291 C 170.246 295.902,170.377 295.002,170.289 294.291 C 170.164 293.287,170.113 293.222,170.059 294.000 M227.809 295.502 C 228.425 296.658,228.999 297.534,229.084 297.449 C 229.270 297.263,227.701 294.368,227.106 293.800 C 226.876 293.580,227.192 294.346,227.809 295.502 M282.868 294.400 C 282.888 295.439,283.518 297.146,283.532 296.200 C 283.538 295.760,283.389 295.040,283.200 294.600 C 282.989 294.110,282.861 294.032,282.868 294.400 M169.050 298.450 C 168.717 300.117,169.040 300.440,169.400 298.800 C 169.552 298.109,169.593 297.459,169.491 297.358 C 169.389 297.256,169.191 297.747,169.050 298.450 M283.675 298.200 C 283.686 298.640,283.832 299.540,284.000 300.200 L 284.305 301.400 284.325 300.200 C 284.335 299.540,284.189 298.640,284.000 298.200 L 283.656 297.400 283.675 298.200 M229.925 299.400 C 230.372 300.280,231.031 301.360,231.391 301.800 C 231.750 302.240,231.568 301.700,230.985 300.600 C 230.403 299.500,229.743 298.420,229.519 298.200 C 229.295 297.980,229.478 298.520,229.925 299.400 M284.597 308.523 C 284.599 311.996,284.717 314.424,284.860 313.919 C 285.193 312.742,285.185 304.974,284.850 303.404 C 284.709 302.747,284.595 305.050,284.597 308.523 M232.000 302.938 C 232.000 303.278,235.657 308.800,235.882 308.800 C 236.073 308.800,235.961 308.608,233.912 305.425 C 232.261 302.860,232.000 302.521,232.000 302.938 M117.229 305.429 C 117.188 306.033,118.457 309.676,118.644 309.490 C 118.728 309.405,118.451 308.360,118.028 307.168 C 117.605 305.976,117.245 305.193,117.229 305.429 M236.740 310.316 C 237.233 311.009,237.844 311.704,238.097 311.860 C 238.350 312.017,238.154 311.577,237.660 310.884 C 237.167 310.191,236.556 309.496,236.303 309.340 C 236.050 309.183,236.246 309.623,236.740 310.316 M118.800 310.147 C 118.800 310.580,120.788 314.400,121.013 314.400 C 121.123 314.400,120.739 313.455,120.159 312.300 C 119.043 310.079,118.800 309.694,118.800 310.147 M162.585 314.100 C 161.951 315.061,161.766 315.552,162.158 315.229 C 162.818 314.687,164.196 312.400,163.863 312.400 C 163.777 312.400,163.202 313.165,162.585 314.100 M239.130 313.500 C 239.561 314.105,240.329 314.960,240.837 315.400 C 241.345 315.840,241.072 315.345,240.232 314.300 C 238.574 312.239,237.863 311.722,239.130 313.500 M284.049 315.600 C 284.016 315.930,283.889 316.650,283.767 317.200 C 283.575 318.064,283.607 318.103,283.999 317.488 C 284.248 317.097,284.375 316.377,284.281 315.888 C 284.186 315.400,284.082 315.270,284.049 315.600 M123.185 317.539 C 124.482 319.217,128.949 323.205,129.521 323.196 C 129.674 323.193,129.170 322.715,128.400 322.133 C 127.630 321.551,125.839 319.888,124.420 318.437 C 122.540 316.515,122.205 316.271,123.185 317.539 M160.233 317.234 C 159.629 317.912,159.214 318.547,159.311 318.645 C 159.409 318.742,159.973 318.187,160.565 317.411 C 161.892 315.671,161.711 315.575,160.233 317.234 M242.000 316.792 C 242.000 317.317,249.268 324.065,249.541 323.792 C 249.680 323.654,249.435 323.350,248.997 323.117 C 248.559 322.885,246.805 321.295,245.100 319.585 C 243.395 317.874,242.000 316.617,242.000 316.792 M155.800 321.507 C 154.700 322.512,154.091 323.169,154.447 322.967 C 155.381 322.437,158.110 319.975,157.942 319.815 C 157.864 319.740,156.900 320.501,155.800 321.507 M282.119 321.298 C 281.892 321.794,281.028 323.100,280.198 324.200 C 279.025 325.754,278.932 325.977,279.782 325.200 C 280.958 324.125,283.016 320.882,282.714 320.580 C 282.613 320.479,282.345 320.802,282.119 321.298 M131.117 324.057 C 131.841 324.520,132.527 324.806,132.642 324.692 C 132.756 324.577,132.271 324.195,131.563 323.842 C 129.770 322.947,129.549 323.053,131.117 324.057 M152.093 323.780 C 150.632 324.587,150.562 324.842,151.930 324.364 C 152.629 324.121,153.302 323.759,153.424 323.561 C 153.721 323.081,153.204 323.166,152.093 323.780 M251.000 324.998 C 252.343 326.140,255.602 328.144,255.776 327.935 C 255.838 327.861,254.519 326.940,252.844 325.889 C 251.170 324.837,250.340 324.436,251.000 324.998 M133.800 325.200 C 134.996 325.714,135.995 325.714,135.200 325.200 C 134.870 324.987,134.240 324.822,133.800 324.834 L 133.000 324.856 133.800 325.200 M148.400 325.200 C 147.605 325.714,148.604 325.714,149.800 325.200 L 150.600 324.856 149.800 324.834 C 149.360 324.822,148.730 324.987,148.400 325.200 M137.400 326.043 C 139.026 326.398,143.793 326.405,146.000 326.056 C 147.151 325.873,145.708 325.772,142.000 325.776 C 138.810 325.779,136.740 325.899,137.400 326.043 M258.600 329.200 C 259.796 329.714,260.795 329.714,260.000 329.200 C 259.670 328.987,259.040 328.822,258.600 328.834 L 257.800 328.856 258.600 329.200 M262.019 330.046 C 263.265 330.394,269.503 330.404,270.723 330.060 C 271.231 329.917,269.259 329.794,266.342 329.786 C 263.424 329.779,261.479 329.896,262.019 330.046 " stroke="none" fill="#a6d8f9" fill-rule="evenodd"></path><path id="path4" d="M151.800 69.623 C 152.680 69.805,153.850 69.944,154.400 69.931 C 155.041 69.916,154.826 69.789,153.800 69.577 C 152.920 69.395,151.750 69.256,151.200 69.269 C 150.559 69.284,150.774 69.411,151.800 69.623 M148.100 69.876 C 148.485 69.976,149.115 69.976,149.500 69.876 C 149.885 69.775,149.570 69.693,148.800 69.693 C 148.030 69.693,147.715 69.775,148.100 69.876 M144.400 70.406 C 143.978 70.682,144.215 70.723,145.200 70.542 C 146.925 70.225,147.251 69.998,145.967 70.006 C 145.435 70.009,144.730 70.189,144.400 70.406 M156.033 70.143 C 156.125 70.221,156.830 70.401,157.600 70.542 C 158.585 70.723,158.822 70.682,158.400 70.406 C 157.858 70.050,155.637 69.803,156.033 70.143 M161.233 71.716 C 161.325 71.780,162.075 72.329,162.900 72.937 C 163.725 73.544,164.398 73.897,164.395 73.720 C 164.390 73.387,161.815 71.600,161.339 71.600 C 161.189 71.600,161.142 71.652,161.233 71.716 M260.421 71.979 C 260.046 72.216,260.470 72.265,261.621 72.118 C 262.599 71.992,263.475 71.825,263.567 71.745 C 263.942 71.419,260.955 71.640,260.421 71.979 M266.433 71.744 C 266.525 71.823,267.500 72.001,268.600 72.141 C 269.965 72.314,270.410 72.270,270.000 72.003 C 269.459 71.650,266.036 71.401,266.433 71.744 M274.576 73.813 C 275.004 74.136,275.533 74.400,275.753 74.400 C 275.973 74.400,275.804 74.136,275.376 73.813 C 274.949 73.490,274.420 73.225,274.200 73.225 C 273.980 73.225,274.149 73.490,274.576 73.813 M277.999 76.201 C 278.768 77.080,279.555 77.980,279.748 78.200 C 279.940 78.420,279.911 78.240,279.683 77.800 C 279.455 77.360,278.668 76.460,277.934 75.801 L 276.600 74.602 277.999 76.201 M133.606 76.994 C 132.863 77.761,132.332 78.450,132.427 78.525 C 132.522 78.600,133.206 77.973,133.946 77.131 C 135.629 75.218,135.412 75.131,133.606 76.994 M168.015 78.200 C 168.017 78.420,168.386 79.050,168.836 79.600 C 169.379 80.264,169.515 80.331,169.240 79.800 C 168.566 78.495,168.012 77.772,168.015 78.200 M245.633 81.115 C 245.321 81.492,244.694 82.250,244.239 82.800 C 243.783 83.350,244.173 83.088,245.105 82.219 C 246.037 81.349,246.800 80.584,246.800 80.519 C 246.800 80.174,246.129 80.517,245.633 81.115 M281.214 80.454 C 281.206 80.594,281.463 81.314,281.784 82.054 C 282.106 82.794,282.369 83.130,282.370 82.800 C 282.372 82.224,281.243 79.934,281.214 80.454 M282.752 84.887 C 282.937 85.998,282.993 86.055,283.119 85.254 C 283.201 84.733,283.103 84.143,282.901 83.941 C 282.679 83.719,282.621 84.093,282.752 84.887 M283.758 93.400 C 283.758 96.480,283.821 97.687,283.897 96.082 C 283.973 94.478,283.973 91.958,283.896 90.482 C 283.819 89.007,283.757 90.320,283.758 93.400 M234.964 94.129 C 234.509 94.828,233.815 95.895,233.422 96.500 C 233.029 97.105,232.793 97.600,232.897 97.600 C 233.166 97.600,236.086 93.153,235.924 92.991 C 235.851 92.917,235.418 93.429,234.964 94.129 M125.067 94.667 C 124.920 94.813,124.815 95.398,124.834 95.967 C 124.868 96.981,124.875 96.979,125.221 95.820 C 125.585 94.603,125.531 94.202,125.067 94.667 M174.658 95.600 C 174.975 97.325,175.202 97.651,175.194 96.367 C 175.191 95.835,175.011 95.130,174.794 94.800 C 174.518 94.378,174.477 94.615,174.658 95.600 M175.440 100.666 C 175.808 102.199,176.000 102.344,176.000 101.090 C 176.000 100.517,175.813 99.932,175.584 99.790 C 175.311 99.621,175.262 99.923,175.440 100.666 M124.256 100.884 C 124.121 101.388,124.034 102.880,124.061 104.200 C 124.111 106.574,124.115 106.565,124.418 103.400 C 124.734 100.097,124.682 99.294,124.256 100.884 M282.914 104.200 C 282.917 105.300,282.995 105.703,283.087 105.095 C 283.179 104.486,283.177 103.586,283.082 103.095 C 282.987 102.603,282.911 103.100,282.914 104.200 M176.194 128.123 C 176.191 139.825,176.306 147.690,176.450 145.600 C 176.798 140.523,176.817 108.382,176.472 107.523 C 176.322 107.151,176.197 116.421,176.194 128.123 M226.057 108.457 C 225.775 108.909,225.632 109.366,225.740 109.473 C 225.847 109.581,226.144 109.278,226.400 108.800 C 227.005 107.670,226.724 107.390,226.057 108.457 M282.054 108.800 C 282.019 109.350,281.896 110.250,281.783 110.800 L 281.577 111.800 282.007 110.815 C 282.243 110.274,282.365 109.374,282.278 108.815 L 282.120 107.800 282.054 108.800 M123.453 113.236 C 123.314 113.931,123.225 115.692,123.255 117.150 C 123.308 119.706,123.322 119.665,123.645 116.024 C 123.988 112.166,123.905 110.974,123.453 113.236 M281.246 112.867 C 281.221 113.234,281.096 113.864,280.970 114.267 C 280.752 114.962,280.763 114.963,281.197 114.287 C 281.448 113.896,281.573 113.266,281.473 112.887 C 281.311 112.268,281.288 112.266,281.246 112.867 M280.446 116.067 C 280.421 116.434,280.296 117.064,280.170 117.467 C 279.952 118.162,279.963 118.163,280.397 117.487 C 280.648 117.096,280.773 116.466,280.673 116.087 C 280.511 115.468,280.488 115.466,280.446 116.067 M217.186 125.101 C 216.345 126.787,216.340 126.800,216.547 126.800 C 216.805 126.800,218.042 124.308,217.869 124.136 C 217.795 124.062,217.488 124.496,217.186 125.101 M122.656 127.045 C 122.515 128.072,122.428 130.642,122.463 132.756 C 122.523 136.402,122.541 136.311,122.814 131.000 C 123.118 125.075,123.075 123.988,122.656 127.045 M215.400 128.400 C 215.059 129.060,214.869 129.600,214.979 129.600 C 215.089 129.600,215.459 129.060,215.800 128.400 C 216.141 127.740,216.331 127.200,216.221 127.200 C 216.111 127.200,215.741 127.740,215.400 128.400 M213.800 131.200 C 213.459 131.860,213.269 132.400,213.379 132.400 C 213.489 132.400,213.859 131.860,214.200 131.200 C 214.541 130.540,214.731 130.000,214.621 130.000 C 214.511 130.000,214.141 130.540,213.800 131.200 M208.893 138.800 C 208.618 139.240,208.531 139.600,208.700 139.600 C 208.869 139.600,209.232 139.240,209.507 138.800 C 209.782 138.360,209.869 138.000,209.700 138.000 C 209.531 138.000,209.168 138.360,208.893 138.800 M121.858 144.450 C 121.716 145.807,121.627 148.556,121.659 150.559 C 121.710 153.696,121.764 153.372,122.044 148.218 C 122.384 141.969,122.299 140.234,121.858 144.450 M203.366 146.700 C 200.397 150.387,198.904 152.431,200.372 150.800 C 202.081 148.901,205.295 144.800,205.075 144.800 C 204.977 144.800,204.208 145.655,203.366 146.700 M265.000 153.200 C 264.659 153.860,264.469 154.400,264.579 154.400 C 264.689 154.400,265.059 153.860,265.400 153.200 C 265.741 152.540,265.931 152.000,265.821 152.000 C 265.711 152.000,265.341 152.540,265.000 153.200 M185.957 166.500 C 182.964 169.525,180.626 172.000,180.763 172.000 C 181.117 172.000,191.798 161.251,191.581 161.114 C 191.481 161.051,188.951 163.475,185.957 166.500 M121.067 165.162 C 120.920 167.231,120.828 171.190,120.862 173.961 C 120.916 178.356,120.965 177.926,121.251 170.600 C 121.600 161.656,121.508 158.949,121.067 165.162 M257.845 164.988 C 257.480 165.544,257.322 166.000,257.495 166.000 C 257.884 166.000,258.919 164.386,258.682 164.149 C 258.586 164.053,258.210 164.431,257.845 164.988 M175.506 170.785 C 175.209 177.165,175.187 176.921,176.012 176.348 C 176.348 176.114,176.426 175.866,176.194 175.767 C 175.941 175.661,175.843 173.969,175.935 171.297 C 176.015 168.933,176.013 166.549,175.928 165.999 C 175.844 165.450,175.654 167.603,175.506 170.785 M248.175 178.668 C 247.559 179.476,247.259 180.011,247.509 179.856 C 248.021 179.540,249.753 177.200,249.475 177.200 C 249.376 177.200,248.791 177.861,248.175 178.668 M245.408 182.300 C 244.549 183.345,244.260 183.840,244.766 183.400 C 245.661 182.622,247.398 180.400,247.112 180.400 C 247.034 180.400,246.267 181.255,245.408 182.300 M120.534 189.600 C 120.534 191.250,120.605 191.925,120.691 191.100 C 120.778 190.275,120.778 188.925,120.691 188.100 C 120.605 187.275,120.534 187.950,120.534 189.600 M238.575 190.100 L 237.400 191.400 238.700 190.225 C 239.415 189.579,240.000 188.994,240.000 188.925 C 240.000 188.616,239.670 188.888,238.575 190.100 M120.167 200.200 C 120.167 204.380,120.226 206.036,120.298 203.879 C 120.371 201.723,120.370 198.303,120.298 196.279 C 120.225 194.256,120.166 196.020,120.167 200.200 M119.461 213.092 C 119.321 214.581,119.232 217.600,119.264 219.800 C 119.313 223.194,119.369 222.801,119.634 217.206 C 119.962 210.263,119.890 208.550,119.461 213.092 M246.760 216.200 C 247.434 217.505,247.988 218.228,247.985 217.800 C 247.983 217.580,247.614 216.950,247.164 216.400 C 246.621 215.736,246.485 215.669,246.760 216.200 M250.006 222.050 C 249.997 222.405,252.033 226.000,252.242 226.000 C 252.338 226.000,252.060 225.325,251.624 224.500 C 250.678 222.711,250.015 221.706,250.006 222.050 M118.901 227.800 C 118.905 228.680,118.987 228.993,119.083 228.495 C 119.179 227.998,119.175 227.278,119.075 226.895 C 118.975 226.513,118.896 226.920,118.901 227.800 M118.528 232.400 C 118.528 233.830,118.601 234.415,118.689 233.700 C 118.778 232.985,118.778 231.815,118.689 231.100 C 118.601 230.385,118.528 230.970,118.528 232.400 M189.800 233.200 C 189.140 233.637,188.780 233.992,189.000 233.988 C 189.401 233.982,191.576 232.423,191.200 232.412 C 191.090 232.408,190.460 232.763,189.800 233.200 M186.100 235.426 C 185.165 235.987,184.400 236.540,184.400 236.655 C 184.400 236.871,187.099 235.338,187.780 234.736 C 188.467 234.128,187.827 234.391,186.100 235.426 M181.200 238.433 L 180.200 239.248 181.500 238.614 C 182.215 238.265,182.800 237.894,182.800 237.790 C 182.800 237.392,182.163 237.648,181.200 238.433 M117.728 240.800 C 117.728 242.230,117.801 242.815,117.889 242.100 C 117.978 241.385,117.978 240.215,117.889 239.500 C 117.801 238.785,117.728 239.370,117.728 240.800 M175.687 245.841 C 175.639 248.064,175.513 251.034,175.406 252.441 C 175.232 254.744,175.253 254.842,175.617 253.415 C 175.840 252.544,175.967 249.574,175.898 246.815 C 175.774 241.817,175.774 241.814,175.687 245.841 M116.931 249.400 C 116.933 250.940,117.005 251.521,117.092 250.691 C 117.179 249.861,117.177 248.601,117.089 247.891 C 117.000 247.181,116.929 247.860,116.931 249.400 M264.404 249.400 C 264.405 249.620,264.763 250.340,265.200 251.000 C 266.236 252.564,266.237 252.008,265.201 250.310 C 264.762 249.589,264.404 249.180,264.404 249.400 M116.493 254.000 C 116.493 254.770,116.575 255.085,116.676 254.700 C 116.776 254.315,116.776 253.685,116.676 253.300 C 116.575 252.915,116.493 253.230,116.493 254.000 M267.600 255.600 C 268.049 256.480,268.506 257.200,268.616 257.200 C 268.726 257.200,268.449 256.480,268.000 255.600 C 267.551 254.720,267.094 254.000,266.984 254.000 C 266.874 254.000,267.151 254.720,267.600 255.600 M116.124 259.400 C 116.126 260.720,116.201 261.212,116.290 260.493 C 116.379 259.774,116.377 258.694,116.286 258.093 C 116.195 257.492,116.122 258.080,116.124 259.400 M174.859 259.400 C 174.820 260.060,174.696 261.050,174.583 261.600 L 174.377 262.600 174.808 261.614 C 175.044 261.072,175.168 260.082,175.083 259.414 L 174.928 258.200 174.859 259.400 M115.714 263.800 C 115.717 264.900,115.795 265.303,115.887 264.695 C 115.979 264.086,115.977 263.186,115.882 262.695 C 115.787 262.203,115.711 262.700,115.714 263.800 M174.049 266.400 C 174.016 266.730,173.889 267.450,173.767 268.000 C 173.575 268.864,173.607 268.903,173.999 268.288 C 174.248 267.897,174.375 267.177,174.281 266.688 C 174.186 266.200,174.082 266.070,174.049 266.400 M115.346 272.200 C 115.347 274.400,115.414 275.249,115.495 274.087 C 115.576 272.924,115.576 271.124,115.493 270.087 C 115.411 269.049,115.345 270.000,115.346 272.200 M173.264 273.450 C 173.229 273.918,173.105 274.907,172.989 275.650 C 172.796 276.886,172.815 276.917,173.208 276.014 C 173.445 275.472,173.568 274.482,173.483 273.814 C 173.391 273.097,173.302 272.948,173.264 273.450 M114.970 285.600 C 114.970 290.330,115.028 292.265,115.098 289.900 C 115.169 287.535,115.169 283.665,115.098 281.300 C 115.028 278.935,114.970 280.870,114.970 285.600 M172.222 283.022 C 172.072 283.825,172.038 284.572,172.148 284.682 C 172.258 284.792,172.472 284.225,172.622 283.422 C 172.773 282.619,172.806 281.873,172.696 281.763 C 172.586 281.653,172.373 282.219,172.222 283.022 M171.450 288.850 C 171.117 290.517,171.440 290.840,171.800 289.200 C 171.952 288.509,171.993 287.859,171.891 287.758 C 171.789 287.656,171.591 288.147,171.450 288.850 M282.644 291.400 C 282.973 292.871,283.202 293.190,283.194 292.167 C 283.191 291.745,283.005 291.130,282.782 290.800 C 282.485 290.362,282.448 290.524,282.644 291.400 M170.600 294.000 C 170.446 294.910,170.404 295.738,170.507 295.840 C 170.610 295.943,170.813 295.277,170.960 294.360 C 171.107 293.443,171.148 292.615,171.053 292.520 C 170.958 292.424,170.754 293.090,170.600 294.000 M283.458 294.800 C 283.775 296.525,284.002 296.851,283.994 295.567 C 283.991 295.035,283.811 294.330,283.594 294.000 C 283.318 293.578,283.277 293.815,283.458 294.800 M115.324 296.600 C 115.326 297.920,115.401 298.412,115.490 297.693 C 115.579 296.974,115.577 295.894,115.486 295.293 C 115.395 294.692,115.322 295.280,115.324 296.600 M169.849 297.415 C 169.712 297.773,169.615 298.366,169.634 298.733 C 169.653 299.100,169.827 298.869,170.021 298.220 C 170.398 296.958,170.265 296.333,169.849 297.415 M284.501 299.400 C 284.505 300.280,284.587 300.593,284.683 300.095 C 284.779 299.598,284.775 298.878,284.675 298.495 C 284.575 298.113,284.496 298.520,284.501 299.400 M167.513 305.381 C 167.142 306.381,166.917 307.200,167.014 307.200 C 167.293 307.200,168.431 304.294,168.303 303.909 C 168.239 303.718,167.884 304.380,167.513 305.381 M285.142 309.200 C 285.000 312.390,284.773 315.630,284.638 316.400 C 284.502 317.170,284.669 316.821,285.007 315.624 C 285.449 314.063,285.591 312.026,285.511 308.424 L 285.400 303.400 285.142 309.200 M233.011 305.600 C 233.765 306.977,236.427 310.769,236.804 311.002 C 237.028 311.141,236.369 310.027,235.339 308.527 C 233.475 305.812,232.358 304.407,233.011 305.600 M117.451 307.974 C 117.827 309.439,118.771 311.486,118.755 310.800 C 118.747 310.470,118.394 309.480,117.971 308.600 C 117.548 307.720,117.314 307.438,117.451 307.974 M237.991 312.788 C 238.457 313.441,239.042 314.102,239.291 314.256 C 239.541 314.411,239.241 313.876,238.625 313.068 C 237.288 311.315,236.784 311.092,237.991 312.788 M120.000 313.739 C 120.000 314.215,121.787 316.790,122.120 316.795 C 122.297 316.798,121.944 316.125,121.337 315.300 C 120.729 314.475,120.180 313.725,120.116 313.633 C 120.052 313.542,120.000 313.589,120.000 313.739 M241.201 316.600 C 241.751 317.260,242.245 317.875,242.300 317.967 C 242.355 318.058,242.488 318.045,242.596 317.938 C 242.704 317.830,242.209 317.215,241.497 316.571 L 240.203 315.400 241.201 316.600 M158.288 319.862 C 156.796 321.318,155.628 322.562,155.693 322.626 C 155.818 322.751,159.828 318.972,160.749 317.862 C 161.851 316.533,160.938 317.275,158.288 319.862 M153.376 323.787 C 152.949 324.110,152.780 324.375,153.000 324.375 C 153.220 324.375,153.749 324.110,154.176 323.787 C 154.604 323.464,154.773 323.200,154.553 323.200 C 154.333 323.200,153.804 323.464,153.376 323.787 M137.221 326.421 C 137.755 326.760,140.742 326.981,140.367 326.655 C 140.275 326.575,139.399 326.408,138.421 326.282 C 137.270 326.135,136.846 326.184,137.221 326.421 M145.000 326.400 L 143.400 326.686 145.076 326.743 C 145.998 326.774,146.864 326.620,147.000 326.400 C 147.136 326.180,147.102 326.026,146.924 326.057 C 146.746 326.088,145.880 326.242,145.000 326.400 M258.200 329.600 C 258.336 329.820,258.842 329.987,259.324 329.972 C 260.169 329.945,260.171 329.931,259.400 329.600 C 258.299 329.127,257.908 329.127,258.200 329.600 M261.563 330.524 C 261.742 330.703,262.769 330.790,263.844 330.718 L 265.800 330.587 263.519 330.394 C 262.264 330.287,261.384 330.346,261.563 330.524 M268.800 330.400 L 266.600 330.670 268.600 330.729 C 269.700 330.761,270.870 330.613,271.200 330.400 C 271.530 330.187,271.620 330.039,271.400 330.071 C 271.180 330.104,270.010 330.252,268.800 330.400 " stroke="none" fill="#52b4f4" fill-rule="evenodd"></path></g></svg>